<?xml version="1.0" encoding="utf-8"?>
<!-- Generator: Adobe Illustrator 16.0.0, SVG Export Plug-In . SVG Version: 6.00 Build 0)  -->
<!DOCTYPE svg PUBLIC "-//W3C//DTD SVG 1.1//EN" "http://www.w3.org/Graphics/SVG/1.1/DTD/svg11.dtd">
<svg version="1.1" id="Layer_2" xmlns="http://www.w3.org/2000/svg" xmlns:xlink="http://www.w3.org/1999/xlink" x="0px" y="0px"
	 width="369.793px" height="58.271px" viewBox="0 0 369.793 58.271" enable-background="new 0 0 369.793 58.271"
	 xml:space="preserve">
<g>
	<path fill="none" d="M43.389,24.551c-0.284-1.015-0.65-1.967-1.099-2.856c-0.45-0.888-0.987-1.659-1.611-2.314
		c-0.625-0.653-1.353-1.167-2.183-1.538c-0.831-0.37-1.772-0.557-2.827-0.557c-1.133,0-2.129,0.201-2.988,0.601
		c-0.86,0.4-1.611,0.938-2.256,1.611s-1.182,1.461-1.611,2.358c-0.43,0.898-0.776,1.852-1.04,2.856
		c-0.264,1.007-0.454,2.036-0.571,3.091s-0.176,2.07-0.176,3.047c0,1.836,0.161,3.614,0.483,5.332
		c0.322,1.719,0.835,3.248,1.538,4.585c0.703,1.338,1.601,2.407,2.695,3.208c1.093,0.801,2.402,1.201,3.926,1.201
		c1.445,0,2.7-0.396,3.765-1.187c1.064-0.791,1.948-1.841,2.651-3.149c0.703-1.308,1.23-2.816,1.582-4.526
		c0.352-1.709,0.527-3.49,0.527-5.347c0-1.073-0.064-2.157-0.19-3.252C43.877,26.621,43.672,25.566,43.389,24.551z"/>
	<path fill="none" d="M187.064,22.72c-0.752-1.181-1.714-2.134-2.886-2.856c-1.172-0.722-2.588-1.084-4.248-1.084
		c-1.582,0-2.92,0.283-4.014,0.85c-1.094,0.567-2.041,1.289-2.842,2.168V38.76c0.215,0.703,0.508,1.432,0.879,2.183
		c0.371,0.752,0.85,1.446,1.436,2.08c0.586,0.635,1.289,1.153,2.109,1.553c0.82,0.4,1.787,0.601,2.9,0.601
		c1.25,0,2.412-0.322,3.486-0.967c1.074-0.645,2.007-1.567,2.798-2.769s1.41-2.661,1.86-4.38c0.449-1.718,0.674-3.651,0.674-5.801
		c0-1.523-0.171-3.032-0.513-4.526S187.816,23.902,187.064,22.72z"/>
	<path fill="none" d="M136.951,30c-1.211,0.469-2.276,0.978-3.193,1.523c-0.918,0.547-1.685,1.162-2.3,1.846
		c-0.615,0.685-1.084,1.45-1.406,2.3s-0.483,1.821-0.483,2.915c0,1.66,0.375,2.955,1.128,3.882c0.751,0.929,1.86,1.392,3.325,1.392
		c1.503,0,2.783-0.278,3.838-0.835s1.992-1.333,2.812-2.329l0.234-12.246c-0.723,0.293-1.412,0.567-2.065,0.82
		C138.186,29.522,137.556,29.766,136.951,30z"/>
	<path fill="none" d="M209.447,30c-1.211,0.469-2.275,0.978-3.193,1.523c-0.918,0.547-1.684,1.162-2.299,1.846
		c-0.615,0.685-1.084,1.45-1.406,2.3s-0.484,1.821-0.484,2.915c0,1.66,0.377,2.955,1.129,3.882c0.751,0.929,1.859,1.392,3.324,1.392
		c1.504,0,2.783-0.278,3.838-0.835s1.992-1.333,2.812-2.329l0.234-12.246c-0.723,0.293-1.41,0.567-2.064,0.82
		C210.683,29.522,210.053,29.766,209.447,30z"/>
	<path fill="none" d="M84.948,30c-1.211,0.469-2.275,0.978-3.193,1.523c-0.918,0.547-1.685,1.162-2.3,1.846
		c-0.615,0.685-1.084,1.45-1.406,2.3s-0.483,1.821-0.483,2.915c0,1.66,0.376,2.955,1.128,3.882c0.751,0.929,1.86,1.392,3.325,1.392
		c1.504,0,2.783-0.278,3.838-0.835s1.992-1.333,2.812-2.329l0.234-12.246c-0.723,0.293-1.411,0.567-2.065,0.82
		C86.183,29.522,85.553,29.766,84.948,30z"/>
	<path fill="none" d="M334.797,30c-1.211,0.469-2.275,0.978-3.193,1.523c-0.918,0.547-1.684,1.162-2.299,1.846
		c-0.615,0.685-1.084,1.45-1.406,2.3s-0.484,1.821-0.484,2.915c0,1.66,0.377,2.955,1.129,3.882c0.751,0.929,1.859,1.392,3.324,1.392
		c1.504,0,2.783-0.278,3.838-0.835s1.992-1.333,2.812-2.329l0.234-12.246c-0.723,0.293-1.41,0.567-2.064,0.82
		C336.032,29.522,335.402,29.766,334.797,30z"/>
	<path d="M16.567,31.611c-0.713-0.684-1.573-1.27-2.578-1.758c-1.006-0.487-2.134-0.938-3.384-1.348
		c-1.27-0.41-2.373-0.771-3.311-1.084c-0.938-0.312-1.714-0.674-2.329-1.084s-1.08-0.897-1.392-1.465
		c-0.313-0.566-0.469-1.299-0.469-2.197c0-0.683,0.117-1.348,0.352-1.992s0.586-1.216,1.055-1.714s1.049-0.894,1.743-1.187
		c0.693-0.293,1.509-0.439,2.446-0.439c0.996,0,1.958,0.21,2.886,0.63c0.927,0.421,1.762,0.981,2.505,1.685
		c0.742,0.703,1.381,1.505,1.919,2.402c0.537,0.899,0.913,1.827,1.128,2.783h0.322l-0.439-7.969h-0.234l-1.143,1.846
		c-0.723-0.487-1.68-0.908-2.871-1.26c-1.192-0.352-2.452-0.527-3.779-0.527c-1.27,0-2.417,0.19-3.442,0.571s-1.9,0.908-2.622,1.582
		c-0.723,0.674-1.274,1.479-1.655,2.417s-0.571,1.953-0.571,3.047c0,1.271,0.205,2.349,0.615,3.237
		c0.41,0.89,0.976,1.651,1.699,2.285c0.722,0.635,1.586,1.183,2.593,1.641c1.005,0.46,2.114,0.875,3.325,1.245
		c1.21,0.372,2.28,0.732,3.208,1.084c0.927,0.352,1.704,0.747,2.329,1.187c0.625,0.439,1.099,0.943,1.421,1.509
		c0.322,0.567,0.483,1.241,0.483,2.021c0,0.84-0.132,1.646-0.396,2.417c-0.264,0.772-0.674,1.45-1.23,2.036s-1.26,1.051-2.109,1.392
		c-0.85,0.342-1.871,0.513-3.062,0.513c-1.133,0-2.203-0.244-3.208-0.732c-1.006-0.487-1.91-1.152-2.71-1.992
		c-0.801-0.839-1.49-1.811-2.065-2.915c-0.577-1.103-1.011-2.26-1.304-3.472H0L0.293,45h0.234l1.143-1.846
		c0.41,0.293,0.898,0.582,1.465,0.864c0.566,0.284,1.181,0.538,1.846,0.762c0.664,0.225,1.367,0.41,2.109,0.557
		c0.742,0.146,1.494,0.22,2.256,0.22c1.308,0,2.534-0.195,3.677-0.586c1.143-0.39,2.139-0.947,2.988-1.67
		c0.85-0.722,1.523-1.591,2.021-2.607c0.498-1.015,0.747-2.157,0.747-3.428c0-1.249-0.19-2.333-0.571-3.252
		C17.827,33.096,17.28,32.296,16.567,31.611z"/>
	<path d="M45.279,20.977c-1.133-1.249-2.5-2.236-4.102-2.959c-1.602-0.722-3.398-1.084-5.391-1.084
		c-2.012,0-3.838,0.352-5.479,1.055s-3.047,1.695-4.219,2.974c-1.172,1.279-2.08,2.803-2.725,4.57
		c-0.645,1.769-0.967,3.717-0.967,5.845c0,2.168,0.352,4.127,1.055,5.874c0.703,1.748,1.65,3.237,2.842,4.468
		c1.191,1.23,2.563,2.179,4.116,2.842c1.553,0.664,3.168,0.996,4.849,0.996c2.148,0,4.062-0.396,5.742-1.187
		c1.679-0.791,3.1-1.855,4.263-3.193c1.162-1.337,2.045-2.89,2.651-4.658c0.605-1.767,0.908-3.637,0.908-5.61
		c0-1.952-0.308-3.783-0.923-5.493C47.286,23.707,46.411,22.228,45.279,20.977z M43.667,36.313c-0.352,1.71-0.879,3.219-1.582,4.526
		c-0.703,1.309-1.587,2.358-2.651,3.149c-1.065,0.791-2.32,1.187-3.765,1.187c-1.523,0-2.833-0.4-3.926-1.201
		c-1.094-0.801-1.992-1.87-2.695-3.208c-0.703-1.337-1.216-2.866-1.538-4.585c-0.322-1.718-0.483-3.496-0.483-5.332
		c0-0.977,0.059-1.992,0.176-3.047s0.308-2.084,0.571-3.091c0.264-1.005,0.61-1.958,1.04-2.856c0.429-0.897,0.967-1.685,1.611-2.358
		s1.396-1.211,2.256-1.611c0.859-0.399,1.855-0.601,2.988-0.601c1.055,0,1.997,0.187,2.827,0.557
		c0.83,0.371,1.557,0.885,2.183,1.538c0.625,0.655,1.162,1.427,1.611,2.314c0.449,0.89,0.815,1.842,1.099,2.856
		c0.283,1.016,0.488,2.07,0.615,3.164c0.126,1.095,0.19,2.179,0.19,3.252C44.195,32.823,44.019,34.604,43.667,36.313z"/>
	<path d="M70.987,17.886c-0.312-0.264-0.664-0.469-1.055-0.615c-0.391-0.146-0.772-0.22-1.143-0.22
		c-0.586,0-1.211,0.122-1.875,0.366c-0.664,0.245-1.348,0.601-2.051,1.069s-1.411,1.04-2.124,1.714
		c-0.713,0.674-1.402,1.44-2.065,2.3h-0.117v-4.922l-0.234-0.234l-8.467,0.674v0.234c0.546,0.04,1.084,0.146,1.611,0.322
		s0.977,0.392,1.348,0.645c0.488,0.333,0.879,0.796,1.172,1.392c0.293,0.597,0.439,1.206,0.439,1.831v18.955
		c0,0.664-0.137,1.245-0.41,1.743c-0.274,0.498-0.693,0.846-1.26,1.04c-0.43,0.157-0.845,0.245-1.245,0.264
		c-0.4,0.02-0.864,0.05-1.392,0.088v0.234h13.916v-0.234c-0.567-0.019-1.221-0.083-1.963-0.19c-0.742-0.106-1.367-0.268-1.875-0.483
		c-0.547-0.214-0.957-0.561-1.23-1.04c-0.274-0.478-0.41-1.049-0.41-1.714V23.408c0.215-0.37,0.532-0.82,0.952-1.348
		c0.42-0.527,0.913-1.035,1.479-1.523c0.566-0.487,1.206-0.903,1.919-1.245c0.713-0.341,1.469-0.513,2.271-0.513
		c-0.157,0.254-0.298,0.571-0.425,0.952c-0.127,0.381-0.19,0.729-0.19,1.04c0,0.898,0.253,1.544,0.762,1.934
		c0.508,0.392,1.152,0.586,1.934,0.586c0.918,0,1.611-0.322,2.08-0.967s0.703-1.406,0.703-2.285c0-0.429-0.098-0.829-0.293-1.201
		C71.554,18.468,71.299,18.149,70.987,17.886z"/>
	<path d="M97.34,43.608c0.429-0.575,0.786-1.333,1.069-2.271s0.483-2.099,0.601-3.486h-0.381c-0.156,1.66-0.503,2.905-1.04,3.735
		c-0.538,0.831-1.245,1.245-2.124,1.245c-0.488,0-0.894-0.092-1.216-0.278c-0.322-0.185-0.586-0.439-0.791-0.762
		s-0.352-0.698-0.439-1.128c-0.088-0.429-0.132-0.897-0.132-1.406c0-0.487,0.015-1.22,0.044-2.197
		c0.029-0.976,0.063-2.08,0.103-3.311c0.039-1.23,0.073-2.534,0.103-3.911s0.044-2.72,0.044-4.028c0-1.894-0.239-3.428-0.718-4.6
		s-1.143-2.069-1.992-2.695c-0.85-0.625-1.86-1.044-3.032-1.26c-1.172-0.215-2.461-0.322-3.867-0.322
		c-1.113,0-2.207,0.166-3.281,0.498c-1.074,0.333-2.036,0.781-2.886,1.348c-0.85,0.567-1.534,1.241-2.051,2.021
		c-0.518,0.781-0.776,1.611-0.776,2.49c0,0.352,0.034,0.694,0.103,1.025c0.068,0.333,0.186,0.63,0.352,0.894s0.376,0.479,0.63,0.645
		c0.254,0.166,0.576,0.249,0.967,0.249c0.879,0,1.587-0.224,2.124-0.674c0.537-0.448,0.806-0.985,0.806-1.611
		c0-0.253-0.02-0.59-0.059-1.011c-0.039-0.42-0.088-0.854-0.146-1.304c-0.059-0.448-0.113-0.883-0.161-1.304
		c-0.049-0.419-0.083-0.766-0.103-1.04c0.117-0.176,0.303-0.37,0.557-0.586c0.253-0.214,0.566-0.414,0.938-0.601
		c0.371-0.185,0.801-0.337,1.289-0.454s1.015-0.176,1.582-0.176c1.152,0,2.085,0.187,2.798,0.557c0.713,0.372,1.26,0.86,1.641,1.465
		c0.381,0.605,0.634,1.295,0.762,2.065c0.127,0.772,0.19,1.549,0.19,2.329l0.059,4.072c-0.645,0.371-1.367,0.718-2.168,1.04
		s-1.641,0.635-2.52,0.938c-0.879,0.304-1.772,0.611-2.681,0.923c-0.908,0.312-1.792,0.636-2.651,0.967
		c-0.743,0.274-1.465,0.597-2.168,0.967c-0.703,0.371-1.329,0.846-1.875,1.421c-0.547,0.577-0.986,1.285-1.318,2.124
		c-0.333,0.841-0.498,1.875-0.498,3.105c0,1.934,0.62,3.424,1.86,4.468c1.24,1.045,2.896,1.567,4.966,1.567
		c0.781,0,1.582-0.088,2.402-0.264s1.616-0.439,2.388-0.791c0.771-0.352,1.509-0.78,2.212-1.289
		c0.703-0.508,1.328-1.103,1.875-1.787h0.176c0.781,2.677,2.421,4.014,4.922,4.014c0.742,0,1.406-0.127,1.992-0.381
		C96.403,44.601,96.911,44.186,97.34,43.608z M88.668,40.693c-0.82,0.996-1.758,1.772-2.812,2.329s-2.334,0.835-3.838,0.835
		c-1.465,0-2.574-0.463-3.325-1.392c-0.752-0.927-1.128-2.222-1.128-3.882c0-1.094,0.161-2.065,0.483-2.915s0.791-1.615,1.406-2.3
		c0.615-0.684,1.381-1.299,2.3-1.846c0.918-0.546,1.982-1.055,3.193-1.523c0.605-0.234,1.235-0.478,1.89-0.732
		c0.654-0.253,1.343-0.527,2.065-0.82L88.668,40.693z"/>
	<path d="M125.656,17.695h-10.283v0.264c0.156,0.02,0.4,0.059,0.732,0.117s0.698,0.137,1.099,0.234
		c0.4,0.099,0.815,0.21,1.245,0.337c0.43,0.128,0.815,0.264,1.157,0.41s0.625,0.308,0.85,0.483s0.337,0.362,0.337,0.557
		c0,0.255-0.049,0.538-0.146,0.85c-0.098,0.313-0.195,0.597-0.293,0.85c-0.605,1.563-1.201,3.081-1.787,4.556
		c-0.586,1.476-1.172,2.94-1.758,4.395c-0.586,1.455-1.177,2.9-1.772,4.336s-1.196,2.886-1.802,4.351h-0.059
		c-0.41-1.073-0.864-2.212-1.362-3.413s-1.006-2.412-1.523-3.633c-0.518-1.22-1.035-2.417-1.553-3.589s-0.996-2.274-1.436-3.311
		c-0.439-1.035-0.835-1.967-1.187-2.798c-0.352-0.83-0.625-1.509-0.82-2.036c-0.098-0.272-0.19-0.522-0.278-0.747
		c-0.088-0.224-0.132-0.396-0.132-0.513c0-0.234,0.117-0.434,0.352-0.601c0.234-0.165,0.527-0.303,0.879-0.41
		c0.352-0.106,0.728-0.19,1.128-0.249s0.776-0.098,1.128-0.117v-0.322H96.594v0.264c0.879,0.117,1.699,0.421,2.461,0.908
		c0.762,0.489,1.328,1.183,1.699,2.08c0.469,1.192,0.942,2.329,1.421,3.413s0.962,2.188,1.45,3.311
		c0.488,1.124,0.996,2.285,1.523,3.486s1.084,2.505,1.67,3.911s1.216,2.94,1.89,4.6c0.674,1.66,1.401,3.516,2.183,5.566
		c-1.543,3.848-3.008,6.704-4.395,8.569s-2.705,2.896-3.955,3.091v-2.637c0-0.527-0.088-0.962-0.264-1.304s-0.396-0.615-0.659-0.82
		s-0.552-0.347-0.864-0.425s-0.615-0.117-0.908-0.117c-0.469,0-0.894,0.098-1.274,0.293s-0.703,0.439-0.967,0.732
		s-0.463,0.62-0.601,0.981c-0.136,0.361-0.205,0.718-0.205,1.069c0,0.684,0.142,1.255,0.425,1.714
		c0.283,0.459,0.63,0.825,1.04,1.099s0.85,0.474,1.318,0.601s0.879,0.19,1.23,0.19c0.918,0,1.768-0.176,2.549-0.527
		s1.572-0.996,2.373-1.934s1.641-2.222,2.52-3.853s1.875-3.726,2.988-6.284c0.234-0.547,0.586-1.416,1.055-2.607
		c0.469-1.19,1.016-2.549,1.641-4.072l7.441-17.754c0.195-0.469,0.483-0.894,0.864-1.274s0.781-0.718,1.201-1.011
		s0.835-0.522,1.245-0.688c0.41-0.165,0.732-0.268,0.967-0.308V17.695z"/>
	<path d="M149.593,41.587c-0.538,0.831-1.245,1.245-2.124,1.245c-0.489,0-0.894-0.092-1.216-0.278
		c-0.322-0.185-0.586-0.439-0.791-0.762s-0.352-0.698-0.439-1.128c-0.088-0.429-0.132-0.897-0.132-1.406
		c0-0.487,0.015-1.22,0.044-2.197c0.029-0.976,0.063-2.08,0.103-3.311c0.039-1.23,0.073-2.534,0.103-3.911s0.044-2.72,0.044-4.028
		c0-1.894-0.24-3.428-0.718-4.6c-0.479-1.172-1.143-2.069-1.992-2.695c-0.85-0.625-1.86-1.044-3.032-1.26
		c-1.172-0.215-2.461-0.322-3.867-0.322c-1.113,0-2.208,0.166-3.281,0.498c-1.075,0.333-2.036,0.781-2.886,1.348
		c-0.85,0.567-1.534,1.241-2.051,2.021c-0.518,0.781-0.776,1.611-0.776,2.49c0,0.352,0.034,0.694,0.103,1.025
		c0.068,0.333,0.185,0.63,0.352,0.894c0.166,0.264,0.375,0.479,0.63,0.645c0.253,0.166,0.576,0.249,0.967,0.249
		c0.879,0,1.586-0.224,2.124-0.674c0.537-0.448,0.806-0.985,0.806-1.611c0-0.253-0.02-0.59-0.059-1.011
		c-0.04-0.42-0.088-0.854-0.146-1.304c-0.059-0.448-0.113-0.883-0.161-1.304c-0.049-0.419-0.083-0.766-0.103-1.04
		c0.117-0.176,0.302-0.37,0.557-0.586c0.253-0.214,0.566-0.414,0.938-0.601c0.371-0.185,0.8-0.337,1.289-0.454
		c0.488-0.117,1.015-0.176,1.582-0.176c1.152,0,2.084,0.187,2.798,0.557c0.712,0.372,1.26,0.86,1.641,1.465
		c0.381,0.605,0.634,1.295,0.762,2.065c0.126,0.772,0.19,1.549,0.19,2.329l0.059,4.072c-0.645,0.371-1.368,0.718-2.168,1.04
		c-0.801,0.322-1.641,0.635-2.52,0.938c-0.879,0.304-1.772,0.611-2.681,0.923c-0.908,0.312-1.792,0.636-2.651,0.967
		c-0.743,0.274-1.465,0.597-2.168,0.967c-0.703,0.371-1.329,0.846-1.875,1.421c-0.547,0.577-0.987,1.285-1.318,2.124
		c-0.333,0.841-0.498,1.875-0.498,3.105c0,1.934,0.62,3.424,1.86,4.468c1.24,1.045,2.895,1.567,4.966,1.567
		c0.781,0,1.582-0.088,2.402-0.264s1.616-0.439,2.388-0.791c0.771-0.352,1.509-0.78,2.212-1.289
		c0.703-0.508,1.328-1.103,1.875-1.787h0.176c0.781,2.677,2.421,4.014,4.922,4.014c0.742,0,1.406-0.127,1.992-0.381
		c0.586-0.253,1.093-0.668,1.523-1.245c0.429-0.575,0.786-1.333,1.069-2.271c0.283-0.938,0.483-2.099,0.601-3.486h-0.381
		C150.476,39.512,150.129,40.757,149.593,41.587z M140.672,40.693c-0.82,0.996-1.758,1.772-2.812,2.329s-2.334,0.835-3.838,0.835
		c-1.465,0-2.574-0.463-3.325-1.392c-0.752-0.927-1.128-2.222-1.128-3.882c0-1.094,0.161-2.065,0.483-2.915s0.791-1.615,1.406-2.3
		c0.615-0.684,1.381-1.299,2.3-1.846c0.917-0.546,1.982-1.055,3.193-1.523c0.605-0.234,1.235-0.478,1.89-0.732
		c0.654-0.253,1.342-0.527,2.065-0.82L140.672,40.693z"/>
	<path d="M190.331,20.859c-1.133-1.249-2.461-2.216-3.984-2.9c-1.523-0.684-3.164-1.025-4.922-1.025
		c-0.938,0-1.827,0.146-2.666,0.439c-0.84,0.293-1.607,0.655-2.3,1.084c-0.693,0.43-1.309,0.89-1.846,1.377
		c-0.538,0.489-0.981,0.919-1.333,1.289l-0.205-0.059V0.293L172.841,0l-9.463,0.615V0.85c0.274,0.02,0.596,0.059,0.967,0.117
		c0.371,0.059,0.747,0.132,1.128,0.22s0.742,0.187,1.084,0.293c0.341,0.107,0.601,0.22,0.776,0.337
		c0.488,0.293,0.879,0.714,1.172,1.26c0.293,0.547,0.439,1.26,0.439,2.139v29.707c0,1.095-0.005,2.173-0.015,3.237
		c-0.01,1.065-0.025,2.08-0.044,3.047c-0.02,0.967-0.044,1.86-0.073,2.681s-0.063,1.533-0.103,2.139l0.176,0.117l2.578-3.369
		c0.488,0.293,1.099,0.601,1.831,0.923s1.509,0.62,2.329,0.894s1.655,0.503,2.505,0.688s1.645,0.278,2.388,0.278
		c1.68,0,3.325-0.356,4.937-1.069s3.047-1.703,4.307-2.974c1.26-1.27,2.275-2.772,3.047-4.512c0.771-1.737,1.157-3.633,1.157-5.684
		c0-2.168-0.322-4.141-0.967-5.918C192.353,23.624,191.463,22.11,190.331,20.859z M188.544,37.061
		c-0.45,1.719-1.069,3.179-1.86,4.38s-1.724,2.124-2.798,2.769c-1.074,0.645-2.237,0.967-3.486,0.967c-1.113,0-2.08-0.2-2.9-0.601
		c-0.82-0.399-1.523-0.918-2.109-1.553c-0.586-0.634-1.065-1.328-1.436-2.08c-0.371-0.751-0.664-1.479-0.879-2.183V21.797
		c0.801-0.879,1.748-1.601,2.842-2.168c1.094-0.566,2.432-0.85,4.014-0.85c1.66,0,3.076,0.362,4.248,1.084
		c1.172,0.723,2.134,1.676,2.886,2.856c0.752,1.183,1.299,2.52,1.641,4.014s0.513,3.003,0.513,4.526
		C189.218,33.409,188.993,35.343,188.544,37.061z"/>
	<path d="M222.09,41.587c-0.538,0.831-1.246,1.245-2.125,1.245c-0.488,0-0.893-0.092-1.215-0.278
		c-0.322-0.185-0.586-0.439-0.791-0.762s-0.352-0.698-0.439-1.128c-0.088-0.429-0.133-0.897-0.133-1.406
		c0-0.487,0.016-1.22,0.045-2.197c0.029-0.976,0.062-2.08,0.102-3.311s0.074-2.534,0.104-3.911s0.043-2.72,0.043-4.028
		c0-1.894-0.238-3.428-0.717-4.6c-0.479-1.172-1.143-2.069-1.992-2.695c-0.85-0.625-1.861-1.044-3.033-1.26
		c-1.172-0.215-2.461-0.322-3.867-0.322c-1.113,0-2.207,0.166-3.281,0.498c-1.074,0.333-2.035,0.781-2.885,1.348
		c-0.85,0.567-1.534,1.241-2.051,2.021c-0.518,0.781-0.777,1.611-0.777,2.49c0,0.352,0.034,0.694,0.104,1.025
		c0.068,0.333,0.186,0.63,0.352,0.894c0.165,0.264,0.375,0.479,0.629,0.645c0.254,0.166,0.576,0.249,0.967,0.249
		c0.879,0,1.587-0.224,2.125-0.674c0.537-0.448,0.805-0.985,0.805-1.611c0-0.253-0.02-0.59-0.059-1.011
		c-0.039-0.42-0.088-0.854-0.146-1.304c-0.059-0.448-0.112-0.883-0.16-1.304c-0.049-0.419-0.084-0.766-0.104-1.04
		c0.117-0.176,0.303-0.37,0.557-0.586c0.254-0.214,0.566-0.414,0.938-0.601c0.371-0.185,0.801-0.337,1.289-0.454
		s1.016-0.176,1.582-0.176c1.152,0,2.085,0.187,2.799,0.557c0.713,0.372,1.26,0.86,1.641,1.465c0.381,0.605,0.634,1.295,0.762,2.065
		c0.127,0.772,0.189,1.549,0.189,2.329l0.059,4.072c-0.645,0.371-1.367,0.718-2.168,1.04s-1.641,0.635-2.52,0.938
		c-0.879,0.304-1.771,0.611-2.68,0.923c-0.908,0.312-1.793,0.636-2.652,0.967c-0.742,0.274-1.465,0.597-2.168,0.967
		c-0.703,0.371-1.328,0.846-1.875,1.421c-0.547,0.577-0.986,1.285-1.318,2.124c-0.332,0.841-0.498,1.875-0.498,3.105
		c0,1.934,0.62,3.424,1.861,4.468c1.24,1.045,2.895,1.567,4.965,1.567c0.781,0,1.582-0.088,2.402-0.264s1.616-0.439,2.389-0.791
		c0.771-0.352,1.508-0.78,2.211-1.289c0.703-0.508,1.328-1.103,1.875-1.787h0.176c0.781,2.677,2.422,4.014,4.922,4.014
		c0.742,0,1.406-0.127,1.992-0.381c0.586-0.253,1.094-0.668,1.523-1.245c0.43-0.575,0.787-1.333,1.07-2.271
		c0.282-0.938,0.482-2.099,0.6-3.486h-0.381C222.973,39.512,222.627,40.757,222.09,41.587z M213.168,40.693
		c-0.82,0.996-1.758,1.772-2.812,2.329s-2.334,0.835-3.838,0.835c-1.465,0-2.573-0.463-3.324-1.392
		c-0.752-0.927-1.129-2.222-1.129-3.882c0-1.094,0.162-2.065,0.484-2.915s0.791-1.615,1.406-2.3
		c0.615-0.684,1.381-1.299,2.299-1.846c0.918-0.546,1.982-1.055,3.193-1.523c0.605-0.234,1.235-0.478,1.891-0.732
		c0.654-0.253,1.342-0.527,2.064-0.82L213.168,40.693z"/>
	<path d="M251.797,43.975c-0.469-0.234-0.879-0.493-1.23-0.776c-0.352-0.282-0.635-0.619-0.85-1.011
		c-0.879-1.621-1.714-3.193-2.505-4.717s-1.65-2.939-2.578-4.248c-0.928-1.308-1.968-2.465-3.12-3.472
		c-1.152-1.006-2.539-1.802-4.16-2.388c0.527-0.527,1.04-1.04,1.538-1.538s1.006-0.99,1.523-1.479
		c0.518-0.487,1.045-0.981,1.582-1.479s1.108-1.021,1.714-1.567c0.547-0.487,1.055-0.888,1.523-1.201
		c0.469-0.312,0.962-0.586,1.479-0.82s1.099-0.449,1.743-0.645c0.645-0.194,1.426-0.42,2.344-0.674v-0.264h-11.719v0.264
		c0.391,0.04,0.854,0.099,1.392,0.176c0.537,0.078,1.05,0.181,1.538,0.308c0.488,0.128,0.903,0.284,1.245,0.469
		c0.342,0.187,0.513,0.406,0.513,0.659c0,0.371-0.195,0.791-0.586,1.26c-0.43,0.469-0.938,1.007-1.523,1.611
		c-0.586,0.606-1.216,1.245-1.89,1.919s-1.362,1.353-2.065,2.036c-0.703,0.685-1.382,1.339-2.036,1.963
		c-0.654,0.626-1.26,1.197-1.816,1.714c-0.557,0.518-1.011,0.934-1.362,1.245V0.293L232.197,0l-9.492,0.615V0.85
		c0.273,0.02,0.591,0.049,0.952,0.088c0.361,0.04,0.723,0.094,1.084,0.161c0.361,0.069,0.713,0.161,1.055,0.278
		s0.63,0.264,0.864,0.439c0.488,0.333,0.884,0.787,1.187,1.362c0.303,0.577,0.454,1.274,0.454,2.095v36.123
		c0,0.664-0.132,1.245-0.396,1.743s-0.679,0.846-1.245,1.04c-0.41,0.157-0.815,0.245-1.216,0.264c-0.4,0.02-0.874,0.05-1.421,0.088
		v0.234h13.096v-0.234c-0.566-0.038-1.079-0.121-1.538-0.249c-0.459-0.126-0.933-0.288-1.421-0.483
		c-1.113-0.429-1.67-1.328-1.67-2.695v-9.287c0.234-0.214,0.571-0.429,1.011-0.645c0.439-0.215,1.001-0.322,1.685-0.322
		c0.742,0,1.489,0.234,2.241,0.703s1.475,1.089,2.168,1.86c0.693,0.772,1.357,1.651,1.992,2.637
		c0.635,0.986,1.216,1.998,1.743,3.032c0.527,1.036,0.996,2.047,1.406,3.032c0.41,0.987,0.732,1.871,0.967,2.651h8.086v-0.234
		c-0.039,0-0.244-0.024-0.615-0.073C252.803,44.41,252.344,44.249,251.797,43.975z"/>
	<path d="M282.311,43.916c-1.094-0.469-1.641-1.387-1.641-2.754V26.396c0-1.425-0.156-2.719-0.469-3.882
		c-0.312-1.161-0.791-2.157-1.436-2.988c-0.645-0.83-1.471-1.469-2.476-1.919c-1.007-0.449-2.202-0.674-3.589-0.674
		c-1.289,0-2.422,0.182-3.398,0.542c-0.977,0.362-1.846,0.82-2.607,1.377s-1.451,1.157-2.066,1.802
		c-0.614,0.645-1.205,1.241-1.771,1.787h-0.117V0.293L262.506,0l-9.551,0.615V0.85c0.273,0.02,0.6,0.055,0.981,0.103
		c0.381,0.05,0.762,0.113,1.142,0.19c0.381,0.078,0.738,0.172,1.07,0.278c0.332,0.107,0.586,0.22,0.762,0.337
		c0.488,0.333,0.883,0.806,1.186,1.421s0.455,1.295,0.455,2.036v36.182c0,0.664-0.132,1.245-0.396,1.743
		c-0.264,0.498-0.678,0.846-1.244,1.04c-0.41,0.157-0.816,0.245-1.216,0.264c-0.401,0.02-0.874,0.05-1.421,0.088v0.234h13.271
		v-0.234c-0.566-0.038-1.1-0.106-1.597-0.205c-0.499-0.098-0.991-0.253-1.479-0.469c-0.527-0.234-0.947-0.586-1.26-1.055
		s-0.469-1.034-0.469-1.699V23.408c0.215-0.352,0.537-0.776,0.967-1.274s0.98-0.977,1.654-1.436
		c0.675-0.458,1.471-0.854,2.389-1.187c0.918-0.331,1.973-0.498,3.164-0.498c0.703,0,1.387,0.146,2.051,0.439
		s1.25,0.718,1.758,1.274s0.918,1.241,1.23,2.051c0.312,0.812,0.469,1.743,0.469,2.798v15.82c0,0.664-0.156,1.245-0.469,1.743
		s-0.781,0.846-1.406,1.04c-0.449,0.117-0.918,0.195-1.406,0.234c-0.488,0.04-1.035,0.079-1.641,0.117v0.234h13.447v-0.234
		c-0.547-0.038-1.021-0.103-1.422-0.19S282.721,44.111,282.311,43.916z"/>
	<path d="M303.141,41.733c-0.928,0.986-1.997,1.479-3.208,1.479c-0.859,0-1.558-0.15-2.095-0.454
		c-0.537-0.302-0.962-0.732-1.273-1.289c-0.313-0.557-0.528-1.23-0.646-2.021c-0.116-0.791-0.175-1.674-0.175-2.651V18.545h8.174
		v-0.85h-8.232V8.408h-4.014v9.287h-6.007v0.85h5.889v18.604c0,2.657,0.552,4.669,1.655,6.035c1.104,1.368,2.788,2.051,5.055,2.051
		c1.132,0,2.113-0.2,2.943-0.601c0.83-0.399,1.523-0.947,2.08-1.641c0.557-0.692,1.001-1.503,1.333-2.432
		c0.332-0.927,0.576-1.908,0.732-2.944h-0.38C304.679,39.375,304.068,40.748,303.141,41.733z"/>
	<path d="M310.861,7.544c0.283,0.283,0.61,0.509,0.981,0.674c0.37,0.166,0.762,0.249,1.172,0.249c0.469,0,0.897-0.092,1.289-0.278
		c0.391-0.186,0.728-0.435,1.011-0.747c0.283-0.312,0.502-0.678,0.659-1.099c0.156-0.419,0.234-0.854,0.234-1.304
		c0-0.37-0.078-0.732-0.234-1.084c-0.157-0.352-0.371-0.659-0.645-0.923c-0.274-0.264-0.605-0.473-0.996-0.63
		c-0.392-0.156-0.831-0.234-1.318-0.234c-0.41,0-0.802,0.088-1.172,0.264c-0.371,0.176-0.698,0.416-0.981,0.718
		c-0.283,0.304-0.503,0.649-0.659,1.04c-0.157,0.392-0.234,0.802-0.234,1.23c0,0.41,0.077,0.796,0.234,1.157
		C310.358,6.939,310.578,7.262,310.861,7.544z"/>
	<path d="M315.593,41.045V17.637l-0.293-0.293l-8.994,0.674v0.234c0.273,0.021,0.571,0.063,0.894,0.132
		c0.322,0.069,0.645,0.157,0.967,0.264c0.322,0.108,0.63,0.23,0.923,0.366c0.293,0.137,0.527,0.264,0.703,0.381
		c0.487,0.333,0.888,0.758,1.201,1.274c0.312,0.518,0.469,1.089,0.469,1.714v19.014c0,0.605-0.128,1.172-0.381,1.699
		c-0.254,0.527-0.664,0.89-1.23,1.084c-0.43,0.157-0.84,0.245-1.23,0.264c-0.392,0.02-0.86,0.05-1.406,0.088v0.234h12.656v-0.234
		c-0.703-0.059-1.582-0.282-2.637-0.674C316.139,43.33,315.593,42.393,315.593,41.045z"/>
	<path d="M347.439,41.587c-0.538,0.831-1.246,1.245-2.125,1.245c-0.488,0-0.893-0.092-1.215-0.278
		c-0.322-0.185-0.586-0.439-0.791-0.762s-0.352-0.698-0.439-1.128c-0.088-0.429-0.133-0.897-0.133-1.406
		c0-0.487,0.016-1.22,0.045-2.197c0.029-0.976,0.062-2.08,0.102-3.311s0.074-2.534,0.104-3.911s0.043-2.72,0.043-4.028
		c0-1.894-0.238-3.428-0.717-4.6c-0.479-1.172-1.143-2.069-1.992-2.695c-0.85-0.625-1.861-1.044-3.033-1.26
		c-1.172-0.215-2.461-0.322-3.867-0.322c-1.113,0-2.207,0.166-3.281,0.498c-1.074,0.333-2.035,0.781-2.885,1.348
		c-0.85,0.567-1.534,1.241-2.051,2.021c-0.518,0.781-0.777,1.611-0.777,2.49c0,0.352,0.034,0.694,0.104,1.025
		c0.068,0.333,0.186,0.63,0.352,0.894c0.165,0.264,0.375,0.479,0.629,0.645c0.254,0.166,0.576,0.249,0.967,0.249
		c0.879,0,1.587-0.224,2.125-0.674c0.537-0.448,0.805-0.985,0.805-1.611c0-0.253-0.02-0.59-0.059-1.011
		c-0.039-0.42-0.088-0.854-0.146-1.304c-0.059-0.448-0.112-0.883-0.16-1.304c-0.049-0.419-0.084-0.766-0.104-1.04
		c0.117-0.176,0.303-0.37,0.557-0.586c0.254-0.214,0.566-0.414,0.938-0.601c0.371-0.185,0.801-0.337,1.289-0.454
		s1.016-0.176,1.582-0.176c1.152,0,2.085,0.187,2.799,0.557c0.713,0.372,1.26,0.86,1.641,1.465c0.381,0.605,0.634,1.295,0.762,2.065
		c0.127,0.772,0.189,1.549,0.189,2.329l0.059,4.072c-0.645,0.371-1.367,0.718-2.168,1.04s-1.641,0.635-2.52,0.938
		c-0.879,0.304-1.771,0.611-2.68,0.923c-0.908,0.312-1.793,0.636-2.652,0.967c-0.742,0.274-1.465,0.597-2.168,0.967
		c-0.703,0.371-1.328,0.846-1.875,1.421c-0.547,0.577-0.986,1.285-1.318,2.124c-0.332,0.841-0.498,1.875-0.498,3.105
		c0,1.934,0.62,3.424,1.861,4.468c1.24,1.045,2.895,1.567,4.965,1.567c0.781,0,1.582-0.088,2.402-0.264s1.616-0.439,2.389-0.791
		c0.771-0.352,1.508-0.78,2.211-1.289c0.703-0.508,1.328-1.103,1.875-1.787h0.176c0.781,2.677,2.422,4.014,4.922,4.014
		c0.742,0,1.406-0.127,1.992-0.381c0.586-0.253,1.094-0.668,1.523-1.245c0.43-0.575,0.787-1.333,1.07-2.271
		c0.282-0.938,0.482-2.099,0.6-3.486h-0.381C348.322,39.512,347.977,40.757,347.439,41.587z M338.518,40.693
		c-0.82,0.996-1.758,1.772-2.812,2.329s-2.334,0.835-3.838,0.835c-1.465,0-2.573-0.463-3.324-1.392
		c-0.752-0.927-1.129-2.222-1.129-3.882c0-1.094,0.162-2.065,0.484-2.915s0.791-1.615,1.406-2.3
		c0.615-0.684,1.381-1.299,2.299-1.846c0.918-0.546,1.982-1.055,3.193-1.523c0.605-0.234,1.235-0.478,1.891-0.732
		c0.654-0.253,1.342-0.527,2.064-0.82L338.518,40.693z"/>
	<path d="M369.5,18.838c-0.195-0.37-0.449-0.688-0.762-0.952s-0.664-0.469-1.055-0.615s-0.771-0.22-1.143-0.22
		c-0.586,0-1.211,0.122-1.875,0.366c-0.664,0.245-1.348,0.601-2.051,1.069s-1.411,1.04-2.124,1.714s-1.401,1.44-2.065,2.3h-0.117
		v-4.922l-0.234-0.234l-8.467,0.674v0.234c0.547,0.04,1.084,0.146,1.611,0.322s0.977,0.392,1.348,0.645
		c0.488,0.333,0.879,0.796,1.172,1.392c0.293,0.597,0.439,1.206,0.439,1.831v18.955c0,0.664-0.137,1.245-0.41,1.743
		s-0.693,0.846-1.26,1.04c-0.43,0.157-0.845,0.245-1.245,0.264c-0.4,0.02-0.864,0.05-1.392,0.088v0.234h13.916v-0.234
		c-0.566-0.019-1.221-0.083-1.963-0.19c-0.742-0.106-1.367-0.268-1.875-0.483c-0.547-0.214-0.957-0.561-1.23-1.04
		c-0.273-0.478-0.41-1.049-0.41-1.714V23.408c0.215-0.37,0.532-0.82,0.952-1.348s0.913-1.035,1.479-1.523
		c0.566-0.487,1.206-0.903,1.919-1.245c0.713-0.341,1.47-0.513,2.271-0.513c-0.156,0.254-0.298,0.571-0.425,0.952
		s-0.19,0.729-0.19,1.04c0,0.898,0.254,1.544,0.762,1.934c0.508,0.392,1.152,0.586,1.934,0.586c0.918,0,1.611-0.322,2.08-0.967
		s0.703-1.406,0.703-2.285C369.793,19.61,369.695,19.21,369.5,18.838z"/>
	<rect y="0" width="48.258" height="2"/>
</g>
</svg>
