<?xml version="1.0" standalone="no"?>
<!DOCTYPE svg PUBLIC "-//W3C//DTD SVG 1.1//EN" "http://www.w3.org/Graphics/SVG/1.1/DTD/svg11.dtd" >
<svg xmlns="http://www.w3.org/2000/svg">
<metadata>Generated by IcoMoon</metadata>
<defs>
<font id="icons" horiz-adv-x="1024">
<font-face units-per-em="1024" ascent="960" descent="-64" />
<missing-glyph horiz-adv-x="1024" />
<glyph unicode="&#x20;" d="" horiz-adv-x="512" />
<glyph unicode="&#x30;" d="M585.143 548.571q0-14.857-10.857-25.714l-256-256q-10.857-10.857-25.714-10.857t-25.714 10.857l-256 256q-10.857 10.857-10.857 25.714t10.857 25.714 25.714 10.857h512q14.857 0 25.714-10.857t10.857-25.714z" horiz-adv-x="585" />
<glyph unicode="&#x34;" d="M658.286 475.428q0 105.714-75.143 180.857t-180.857 75.143-180.857-75.143-75.143-180.857 75.143-180.857 180.857-75.143 180.857 75.143 75.143 180.857zM950.857 0q0-29.714-21.714-51.429t-51.429-21.714q-30.857 0-51.429 21.714l-196 195.429q-102.286-70.857-228-70.857-81.714 0-156.286 31.714t-128.571 85.714-85.714 128.571-31.714 156.286 31.714 156.286 85.714 128.571 128.571 85.714 156.286 31.714 156.286-31.714 128.571-85.714 85.714-128.571 31.714-156.286q0-125.714-70.857-228l196-196q21.143-21.143 21.143-51.429z" horiz-adv-x="951" />
<glyph unicode="&#x36;" d="M925.714 717.714q-38.286-56-92.571-95.429 0.571-8 0.571-24 0-74.286-21.714-148.286t-66-142-105.429-120.286-147.429-83.429-184.571-31.143q-154.857 0-283.429 82.857 20-2.286 44.571-2.286 128.571 0 229.143 78.857-60 1.143-107.429 36.857t-65.143 91.143q18.857-2.857 34.857-2.857 24.571 0 48.571 6.286-64 13.143-106 63.714t-42 117.429v2.286q38.857-21.714 83.429-23.429-37.714 25.143-60 65.714t-22.286 88q0 50.286 25.143 93.143 69.143-85.143 168.286-136.286t212.286-56.857q-4.571 21.714-4.571 42.286 0 76.571 54 130.571t130.571 54q80 0 134.857-58.286 62.286 12 117.143 44.571-21.143-65.714-81.143-101.714 53.143 5.714 106.286 28.571z" horiz-adv-x="951" />
<glyph unicode="&#x37;" d="M292 633.143h146.857l-17.143-162.286h-129.714v-470.857h-194.857v470.857h-97.143v162.286h97.143v97.714q0 104 49.143 157.429t161.714 53.429h129.714v-162.286h-81.143q-22.286 0-35.714-3.714t-19.429-13.429-7.714-19.714-1.714-28.286v-81.143z" horiz-adv-x="439" />
<glyph unicode="&#x38;" d="M877.714 182.857v-73.143q0-14.857-10.857-25.714t-25.714-10.857h-804.571q-14.857 0-25.714 10.857t-10.857 25.714v73.143q0 14.857 10.857 25.714t25.714 10.857h804.571q14.857 0 25.714-10.857t10.857-25.714zM877.714 475.428v-73.143q0-14.857-10.857-25.714t-25.714-10.857h-804.571q-14.857 0-25.714 10.857t-10.857 25.714v73.143q0 14.857 10.857 25.714t25.714 10.857h804.571q14.857 0 25.714-10.857t10.857-25.714zM877.714 768v-73.143q0-14.857-10.857-25.714t-25.714-10.857h-804.571q-14.857 0-25.714 10.857t-10.857 25.714v73.143q0 14.857 10.857 25.714t25.714 10.857h804.571q14.857 0 25.714-10.857t10.857-25.714z" />
<glyph unicode="&#x5b;" d="M222.857 877.714h125.143v-221.714h208v-137.714h-208v-225.143q0-77.714 8-98.286 7.429-21.143 29.714-34.286 28.571-17.714 66.857-17.714 66.857 0 132.571 43.429v-138.286q-58.286-27.429-101.714-37.143-44-10.857-98.857-10.857-60 0-106.286 15.429-44.571 14.286-78.857 42.857-33.143 29.143-45.143 60-12.571 30.857-12.571 92v308h-97.143v124q52 17.143 88.571 48 36.571 31.429 58.857 75.429t30.857 112z" horiz-adv-x="585" />
<glyph unicode="&#x65;" d="M329.143 438.857q0-14.857-10.857-25.714l-256-256q-10.857-10.857-25.714-10.857t-25.714 10.857-10.857 25.714v512q0 14.857 10.857 25.714t25.714 10.857 25.714-10.857l256-256q10.857-10.857 10.857-25.714z" horiz-adv-x="366" />
<glyph unicode="&#x6f;" d="M554.857 240v-120.571q0-38.286-22.286-38.286-13.143 0-25.714 12.571v172q12.571 12.571 25.714 12.571 22.286 0 22.286-38.286zM748 239.428v-26.286h-51.429v26.286q0 38.857 25.714 38.857t25.714-38.857zM196 364h61.143v53.714h-178.286v-53.714h60v-325.143h57.143v325.143zM360.571 38.857h50.857v282.286h-50.857v-216q-17.143-24-32.571-24-10.286 0-12 12-0.571 1.714-0.571 20v208h-50.857v-223.429q0-28 4.571-41.714 6.857-21.143 33.143-21.143 27.429 0 58.286 34.857v-30.857zM605.714 123.428v112.571q0 41.714-5.143 56.571-9.714 32-40.571 32-28.571 0-53.143-30.857v124h-50.857v-378.857h50.857v27.429q25.714-31.429 53.143-31.429 30.857 0 40.571 31.429 5.143 15.429 5.143 57.143zM798.857 129.143v7.429h-52q0-29.143-1.143-34.857-4-20.571-22.857-20.571-26.286 0-26.286 39.429v49.714h102.286v58.857q0 45.143-15.429 66.286-22.286 29.143-60.571 29.143-38.857 0-61.143-29.143-16-21.143-16-66.286v-98.857q0-45.143 16.571-66.286 22.286-29.143 61.714-29.143 41.143 0 61.714 30.286 10.286 15.429 12 30.857 1.143 5.143 1.143 33.143zM451.429 650.857v120q0 39.429-24.571 39.429t-24.571-39.429v-120q0-40 24.571-40t24.571 40zM862.286 221.714q0-133.714-14.857-200-8-33.714-33.143-56.571t-58.286-26.286q-105.143-12-317.143-12t-317.143 12q-33.143 3.429-58.571 26.286t-32.857 56.571q-14.857 64-14.857 200 0 133.714 14.857 200 8 33.714 33.143 56.571t58.857 26.857q104.571 11.429 316.571 11.429t317.143-11.429q33.143-4 58.571-26.857t32.857-56.571q14.857-64 14.857-200zM292 950.857h58.286l-69.143-228v-154.857h-57.143v154.857q-8 42.286-34.857 121.143-21.143 58.857-37.143 106.857h60.571l40.571-150.286zM503.429 760.571v-100q0-46.286-16-67.429-21.143-29.143-60.571-29.143-38.286 0-60 29.143-16 21.714-16 67.429v100q0 45.714 16 66.857 21.714 29.143 60 29.143 39.429 0 60.571-29.143 16-21.143 16-66.857zM694.857 853.143v-285.143h-52v31.429q-30.286-35.429-58.857-35.429-26.286 0-33.714 21.143-4.571 13.714-4.571 42.857v225.143h52v-209.714q0-18.857 0.571-20 1.714-12.571 12-12.571 15.429 0 32.571 24.571v217.714h52z" />
<glyph unicode="&#x70;" d="M778.286 136v370.286h-77.143q11.429-36 11.429-74.857 0-72-36.571-132.857t-99.429-96.286-137.143-35.429q-112.571 0-192.571 77.429t-80 187.143q0 38.857 11.429 74.857h-80.571v-370.286q0-14.857 10-24.857t24.857-10h610.857q14.286 0 24.571 10t10.286 24.857zM616 440.571q0 70.857-51.714 120.857t-124.857 50q-72.571 0-124.286-50t-51.714-120.857 51.714-120.857 124.286-50q73.143 0 124.857 50t51.714 120.857zM778.286 646.286v94.286q0 16-11.429 27.714t-28 11.714h-99.429q-16.571 0-28-11.714t-11.429-27.714v-94.286q0-16.571 11.429-28t28-11.429h99.429q16.571 0 28 11.429t11.429 28zM877.714 765.143v-652.571q0-46.286-33.143-79.429t-79.429-33.143h-652.571q-46.286 0-79.429 33.143t-33.143 79.429v652.571q0 46.286 33.143 79.429t79.429 33.143h652.571q46.286 0 79.429-33.143t33.143-79.429z" />
<glyph unicode="&#x71;" d="M585.143 256q0-14.857-10.857-25.714t-25.714-10.857h-512q-14.857 0-25.714 10.857t-10.857 25.714 10.857 25.714l256 256q10.857 10.857 25.714 10.857t25.714-10.857l256-256q10.857-10.857 10.857-25.714z" horiz-adv-x="585" />
<glyph unicode="&#x72;" d="M358.286 640q0-7.429-5.714-13.143l-224.571-224.571 224.571-224.571q5.714-5.714 5.714-13.143t-5.714-13.143l-28.571-28.571q-5.714-5.714-13.143-5.714t-13.143 5.714l-266.286 266.286q-5.714 5.714-5.714 13.143t5.714 13.143l266.286 266.286q5.714 5.714 13.143 5.714t13.143-5.714l28.571-28.571q5.714-5.714 5.714-13.143z" horiz-adv-x="366" />
<glyph unicode="&#x74;" d="M340 402.286q0-7.429-5.714-13.143l-266.286-266.286q-5.714-5.714-13.143-5.714t-13.143 5.714l-28.571 28.571q-5.714 5.714-5.714 13.143t5.714 13.143l224.571 224.571-224.571 224.571q-5.714 5.714-5.714 13.143t5.714 13.143l28.571 28.571q5.714 5.714 13.143 5.714t13.143-5.714l266.286-266.286q5.714-5.714 5.714-13.143z" horiz-adv-x="366" />
<glyph unicode="&#x75;" d="M614.286 530.286q0-7.429-5.714-13.143l-266.286-266.286q-5.714-5.714-13.143-5.714t-13.143 5.714l-266.286 266.286q-5.714 5.714-5.714 13.143t5.714 13.143l28.571 28.571q5.714 5.714 13.143 5.714t13.143-5.714l224.571-224.571 224.571 224.571q5.714 5.714 13.143 5.714t13.143-5.714l28.571-28.571q5.714-5.714 5.714-13.143z" horiz-adv-x="658" />
<glyph unicode="&#x76;" d="M1024-36.855l-485.294 485.3 484.4 484.406-27.145 27.15-484.406-484.406-483.512 483.512-27.15-27.15 483.512-483.512-484.406-484.406 27.15-27.145 484.406 484.4 485.3-485.294z" />
<glyph unicode="&#x77;" d="M365.714 694.857v-512q0-14.857-10.857-25.714t-25.714-10.857-25.714 10.857l-256 256q-10.857 10.857-10.857 25.714t10.857 25.714l256 256q10.857 10.857 25.714 10.857t25.714-10.857 10.857-25.714z" horiz-adv-x="366" />
<glyph unicode="&#x79;" d="M614.286 274.286q0-7.429-5.714-13.143l-28.571-28.571q-5.714-5.714-13.143-5.714t-13.143 5.714l-224.571 224.571-224.571-224.571q-5.714-5.714-13.143-5.714t-13.143 5.714l-28.571 28.571q-5.714 5.714-5.714 13.143t5.714 13.143l266.286 266.286q5.714 5.714 13.143 5.714t13.143-5.714l266.286-266.286q5.714-5.714 5.714-13.143z" horiz-adv-x="658" />
<glyph unicode="&#xe600;" d="M0 592.384q0 64.512 27.136 128t77.824 117.76 133.12 88.064 182.784 33.792q162.816 0 267.264-100.352t104.448-236.544q0-175.104-88.576-289.28t-228.864-114.176q-46.080 0-86.528 21.504t-56.832 52.224l-40.96-161.792q-5.12-19.456-13.312-39.424t-17.92-38.4-19.456-34.816-19.456-30.72-16.896-24.064-13.312-16.896l-6.144-8.192q-3.072-4.096-8.192-3.072t-6.144 6.144q0 1.024-1.536 14.336t-3.072 28.16-3.072 38.4-1.024 45.568 3.072 48.64 7.68 49.152q11.264 48.128 75.776 320.512-8.192 16.384-13.312 39.424t-5.12 37.376l-1.024 15.36q0 65.536 33.28 109.056t80.384 43.52q37.888 0 58.88-25.088t20.992-62.976q0-23.552-8.704-57.856t-23.040-78.848-20.48-72.192q-10.24-46.080 17.92-79.872t75.264-33.792q80.896 0 133.632 91.648t52.736 221.696q0 99.328-64.512 162.304t-180.224 62.976q-129.024 0-209.408-82.944t-80.384-198.656q0-68.608 38.912-115.712 13.312-15.36 8.192-32.768-2.048-5.12-6.144-23.552t-6.144-23.552q-2.048-11.264-10.24-14.848t-18.432 0.512q-60.416 24.576-90.624 84.48t-30.208 139.776z" horiz-adv-x="793" />
<glyph unicode="&#xe601;" d="M512.48 356.448l-130.304 106.976-283.584-334.816h828.032l-283.616 338.144-130.528-110.304zM957.632 767.392h-890.080l445.056-374.336 445.024 374.336zM662.56 483.616l297.312-354.688v606.464l-297.312-251.776zM64.128 735.392v-606.464l297.312 354.688-297.312 251.776z" />
<glyph unicode="&#xe602;" d="M511.302 949.28l-10.965 10.72-500.337-512.192 500.337-511.808 10.965 10.72-490.031 501.257z" horiz-adv-x="511" />
<glyph unicode="&#xe603;" d="M0-53.28l10.965-10.72 500.337 512.176-500.337 511.824-10.965-10.72 490.031-501.272z" horiz-adv-x="511" />
<glyph unicode="&#xe604;" d="M20.96 746.432c2.304-8.544 5.472-16.32 9.504-23.264s8.768-13.12 14.176-18.464c5.44-5.344 11.264-9.824 17.504-13.44s12.736-6.368 19.488-8.224c6.752-1.856 13.408-2.784 20-2.784 6.048 0 11.648 0.288 16.832 0.832s10.304 1.472 15.36 2.784c5.056 1.312 10.176 2.976 15.424 5.088s10.912 4.704 17.056 7.84l14.912-18.976 1.024 0.256v69.696c0 3.072 0.576 5.888 1.76 8.448s3.488 4.64 6.976 6.272c2.72 1.28 5.952 2.144 9.632 2.592s7.68 0.896 11.904 1.376v1.088h-90.784v-1.088c1.312-0.096 3.296-0.224 5.984-0.416s5.632-0.416 8.768-0.736c3.168-0.32 6.272-0.736 9.344-1.216s5.568-1.12 7.52-1.824c3.808-1.248 6.336-3.52 7.584-6.784s1.888-6.912 1.888-10.976v-18.304c0-4.704-0.928-9.568-2.784-14.624s-4.832-9.664-8.896-13.824c-4.064-4.16-9.376-7.552-15.936-10.24s-14.496-4-23.808-4c-10.304 0-19.616 2.176-27.968 6.496s-15.392 10.464-21.248 18.432-10.304 17.6-13.44 28.832c-3.104 11.264-4.672 23.872-4.672 37.824 0 15.584 1.664 29.536 5.024 41.888s8.032 22.816 14.048 31.424 13.184 15.168 21.504 19.744c8.32 4.576 17.408 6.816 27.264 6.816 9.28 0 17.792-1.92 25.504-5.728s14.592-8.768 20.608-14.848c6.016-6.080 11.168-12.928 15.392-20.576 4.256-7.648 7.52-15.296 9.856-22.912h1.344l-1.76 66.368h-1.184l-9.632-18.624c-7.552 5.504-16.096 10.016-25.696 13.44s-20.448 5.184-32.544 5.184c-8.224 0-16.32-1.248-24.288-3.744s-15.52-5.984-22.656-10.464c-7.136-4.48-13.728-9.856-19.744-16.16-6.016-6.272-11.232-13.248-15.616-20.896s-7.84-15.84-10.304-24.576c-2.496-8.736-3.744-17.792-3.744-27.2 0-10.048 1.152-19.328 3.456-27.872l0.064 0.064zM303.424 684.48v1.088c-1.28 0.096-2.88 0.192-4.832 0.352s-3.936 0.288-5.984 0.48c-2.048 0.192-3.968 0.416-5.824 0.736s-3.232 0.64-4.128 1.024c-3.36 1.28-5.632 3.136-6.848 5.568s-1.824 5.184-1.824 8.288v78.72h26.464c5.248 0 9.824-0.8 13.792-2.432s7.296-3.808 10.112-6.528c2.816-2.72 5.152-5.824 7.072-9.376s3.296-7.232 4.224-11.104c0.928-3.872 1.824-7.744 2.752-11.584s1.792-7.424 2.624-10.72c1.792-7.712 3.392-14.56 4.832-20.544s3.456-10.976 6.080-14.976c2.624-3.968 5.792-6.976 9.504-9.024s8.128-3.040 13.28-3.040c5.504 0 10.144 0.8 13.92 2.432s6.784 4.064 9.088 7.264c2.304 3.2 3.968 7.264 4.96 12.16s1.504 10.592 1.504 17.088v5.824h-2.048v-5.824c0-5.248-0.48-9.632-1.44-13.088s-2.24-6.304-3.808-8.416c-1.568-2.112-3.328-3.616-5.248-4.48s-3.872-1.28-5.792-1.28c-3.872 0-7.040 1.28-9.504 3.84s-4.512 6.528-6.080 11.904c-1.984 6.88-3.584 13.92-4.8 21.088s-2.848 14.624-4.928 22.336c-1.344 4.896-3.52 9.152-6.528 12.768s-6.656 6.592-10.944 8.992c-4.288 2.4-9.088 4.256-14.368 5.536s-10.784 2.048-16.544 2.336v0.864c6.528 1.088 13.216 2.784 20.16 5.152s13.216 5.504 18.944 9.472c5.696 3.968 10.368 8.736 14.048 14.336s5.504 12.16 5.504 19.744c0 5.088-0.8 9.664-2.432 13.728s-3.84 7.712-6.656 10.944c-2.816 3.232-6.016 5.952-9.632 8.224s-7.392 4.16-11.328 5.632c-3.936 1.504-7.904 2.592-11.936 3.328s-7.808 1.088-11.328 1.088h-93.632v-1.344c1.184-0.096 2.624-0.256 4.352-0.48s3.488-0.48 5.28-0.8c1.792-0.32 3.552-0.672 5.216-1.024s3.104-0.736 4.288-1.088c3.424-0.992 5.728-2.784 6.848-5.344s1.696-5.408 1.696-8.48v-153.536c0-3.072-0.576-5.824-1.76-8.256s-3.424-4.288-6.784-5.568c-0.896-0.352-2.208-0.704-3.872-1.024s-3.424-0.608-5.28-0.896c-1.856-0.288-3.68-0.48-5.504-0.608s-3.296-0.256-4.48-0.352v-1.088l79.552-0.032zM273.984 872.032h29.984c4.96 0 9.824-0.8 14.528-2.368s8.896-4.16 12.544-7.712c3.648-3.552 6.592-8.16 8.832-13.856s3.328-12.608 3.328-20.8c0-7.744-1.28-14.4-3.872-20s-6.048-10.176-10.368-13.792c-4.352-3.616-9.344-6.272-15.008-7.968s-11.552-2.56-17.696-2.56h-22.24l-0.032 89.056zM575.264 684.48l3.648 52.032h-1.344c-0.736-2.080-1.888-5.12-3.456-9.088s-3.36-8.16-5.344-12.608c-1.984-4.416-4.128-8.64-6.368-12.672s-4.448-7.104-6.528-9.28c-1.632-1.728-4.352-3.008-8.224-3.872s-8.224-1.44-13.088-1.76c-4.864-0.32-10.048-0.48-15.456-0.48-5.44 0-10.592 0-15.456 0-7.072 0-12.768 0.256-17.088 0.736s-7.712 1.632-10.112 3.392c-2.4 1.76-4.032 4.32-4.896 7.648s-1.28 7.872-1.28 13.536v69.664h30.272c3.808 0 6.976-0.288 9.504-0.896s4.672-1.344 6.368-2.24c1.728-0.896 3.136-1.888 4.192-2.976s2.080-2.112 2.976-3.104c0.8-0.896 1.664-2.496 2.592-4.8s1.728-4.864 2.432-7.712c0.736-2.848 1.344-5.728 1.824-8.64s0.832-5.376 1.024-7.36h1.344v76.256h-1.344c-0.192-1.792-0.512-4.032-0.96-6.688s-1.024-5.312-1.696-7.968-1.44-5.152-2.304-7.424c-0.864-2.272-1.824-3.936-2.912-4.928-0.8-0.8-1.728-1.76-2.784-2.848s-2.432-2.112-4.128-3.040c-1.728-0.928-3.872-1.728-6.432-2.368-2.56-0.672-5.824-0.928-9.696-0.928h-30.272v87.936h38.4c4.448 0 9.088-0.064 13.984-0.192s8.992-0.416 12.352-0.896c1.888-0.256 3.872-1.12 5.888-2.592s3.968-3.264 5.824-5.504c1.856-2.208 3.648-4.672 5.344-7.328s3.264-5.376 4.672-8.128 2.592-5.44 3.584-8.064c0.992-2.624 1.728-4.928 2.176-6.912h1.344v41.92h-146.688v-1.088c1.28-0.096 2.88-0.288 4.8-0.544s3.968-0.64 6.048-1.088c2.080-0.448 4.128-0.96 6.112-1.504s3.648-1.088 5.024-1.632c3.424-1.44 5.728-3.328 6.848-5.632s1.696-4.992 1.696-8.064v-152.48c0-3.072-0.576-5.792-1.76-8.128s-3.424-4.16-6.784-5.44c-1.088-0.448-2.592-0.864-4.544-1.216s-4-0.672-6.176-0.96c-2.176-0.288-4.288-0.48-6.304-0.64-2.048-0.16-3.68-0.288-4.96-0.384v-1.088l158.112 0.064zM755.328 684.48l3.648 52.032h-1.344c-0.736-2.080-1.888-5.12-3.424-9.088s-3.392-8.16-5.408-12.608c-1.984-4.416-4.128-8.64-6.336-12.672-2.24-4.032-4.48-7.104-6.528-9.28-1.632-1.728-4.384-3.008-8.224-3.872-3.872-0.864-8.224-1.44-13.088-1.76s-10.048-0.48-15.424-0.48c-5.44 0-10.624 0-15.456 0-7.104 0-12.768 0.256-17.088 0.736s-7.712 1.632-10.112 3.392c-2.368 1.76-4 4.32-4.864 7.648s-1.28 7.872-1.28 13.536v69.664h30.272c3.808 0 6.944-0.288 9.504-0.896 2.496-0.608 4.672-1.344 6.368-2.24s3.136-1.888 4.192-2.976c1.056-1.088 2.048-2.112 2.944-3.104 0.8-0.896 1.696-2.496 2.624-4.8s1.728-4.864 2.432-7.712 1.312-5.728 1.824-8.64c0.48-2.912 0.8-5.376 0.992-7.36h1.376v76.256h-1.376c-0.192-1.792-0.512-4.032-0.928-6.688s-1.024-5.312-1.696-7.968c-0.672-2.656-1.44-5.152-2.304-7.424s-1.824-3.936-2.944-4.928c-0.768-0.8-1.696-1.76-2.752-2.848s-2.432-2.112-4.128-3.040c-1.76-0.928-3.872-1.728-6.432-2.368-2.56-0.672-5.824-0.928-9.696-0.928h-30.272v87.936h38.4c4.416 0 9.056-0.064 13.984-0.192s8.992-0.416 12.352-0.896c1.888-0.256 3.872-1.12 5.888-2.592s4-3.264 5.856-5.504c1.856-2.208 3.648-4.672 5.344-7.328s3.264-5.376 4.672-8.128c1.376-2.752 2.56-5.44 3.552-8.064s1.76-4.928 2.176-6.912h1.344v41.92h-146.688v-1.088c1.28-0.096 2.88-0.288 4.832-0.544s3.968-0.64 6.048-1.088c2.080-0.448 4.128-0.96 6.112-1.504s3.648-1.088 5.024-1.632c3.424-1.44 5.728-3.328 6.848-5.632s1.696-4.992 1.696-8.064v-152.48c0-3.072-0.576-5.792-1.76-8.128s-3.424-4.16-6.784-5.44c-1.088-0.448-2.592-0.864-4.544-1.216s-4-0.672-6.176-0.96c-2.176-0.256-4.288-0.48-6.304-0.64s-3.68-0.288-4.96-0.384v-1.088l158.016 0.064zM774.112 871.968c2.88-0.768 5.76-1.696 8.64-2.784s5.632-2.272 8.224-3.584 4.736-2.656 6.432-4c5.92-4.8 8.832-12.128 8.832-21.984v-108.416c0-5.888-0.256-11.008-0.672-15.392-0.448-4.384-1.12-8.128-1.984-11.264-0.832-3.136-1.888-5.632-3.136-7.52-1.184-1.888-2.624-3.296-4.288-4.224-0.768-0.448-2.336-1.056-4.544-1.824s-4.64-1.536-7.2-2.304c-2.624-0.768-5.12-1.44-7.552-2.048-2.4-0.608-4.32-0.928-5.696-1.024v-1.088h77.76v1.088c-1.248 0.096-3.264 0.416-6.016 0.96s-5.696 1.248-8.832 2.112c-3.136 0.864-6.048 1.824-8.864 2.848-2.816 1.056-4.8 2.048-6.016 3.040-3.072 2.528-5.504 6.848-7.264 12.96s-2.656 14.464-2.656 25.024v116.704l135.904-167.2h2.016v147.52c0 4.352 0.128 8.48 0.384 12.416 0.32 3.936 0.8 7.52 1.536 10.784s1.696 6.048 2.976 8.416c1.28 2.368 2.88 4.128 4.864 5.28 0.8 0.544 2.304 1.184 4.512 1.984s4.64 1.504 7.2 2.24 5.024 1.344 7.392 1.824 4.224 0.736 5.472 0.736v1.088h-76.576v-1.088c1.76-0.096 4-0.416 6.784-0.96s5.664-1.184 8.672-1.984c2.944-0.8 5.76-1.632 8.32-2.592s4.544-1.824 5.888-2.656c3.072-1.824 5.408-6.016 7.040-12.608 1.664-6.592 2.432-14.784 2.432-24.576v-109.792l-127.008 156.192h-50.688v-0.8c2.272-0.256 4.768-0.8 7.648-1.568l0.064 0.064zM102.176 462.432v1.088c-1.28 0.096-2.912 0.256-4.96 0.544s-4.128 0.608-6.304 1.024c-2.176 0.416-4.192 0.8-6.048 1.216s-3.2 0.8-4 1.152c-3.168 1.344-5.408 3.2-6.72 5.504s-1.984 4.992-1.984 8.064v78.176h33.92c3.072 0 5.824-0.288 8.288-0.896s4.576-1.344 6.368-2.304 3.36-2.016 4.672-3.168c1.312-1.152 2.368-2.304 3.2-3.392s1.664-2.816 2.496-5.216c0.864-2.4 1.632-4.992 2.304-7.84s1.248-5.696 1.696-8.512c0.448-2.848 0.768-5.248 0.96-7.232h1.504l0.256 77.088h-1.504c-0.256-2.88-0.672-5.728-1.216-8.512s-1.184-5.408-1.888-7.84c-0.736-2.432-1.504-4.544-2.368-6.336s-1.696-3.168-2.496-4.064c-0.896-0.992-1.952-2.016-3.136-3.104s-2.592-2.080-4.288-3.040c-1.664-0.96-3.744-1.728-6.176-2.368s-5.344-0.96-8.672-0.96h-33.92v88.48h40.32c4.512 0 8.928-0.064 13.216-0.128s8.128-0.416 11.456-0.96c2.816-0.448 5.76-2.272 8.896-5.44s6.048-6.88 8.768-11.136c2.72-4.256 5.056-8.608 7.072-13.088s3.296-8.224 3.936-11.2h1.504v44.256h-148.192v-1.088c1.28-0.096 2.88-0.288 4.832-0.544s3.968-0.64 6.048-1.088c2.080-0.448 4.128-0.96 6.112-1.504s3.68-1.088 5.024-1.632c3.424-1.44 5.728-3.328 6.848-5.632s1.696-4.992 1.696-8.064v-152.8c0-3.072-0.576-5.76-1.76-8s-3.424-4.032-6.784-5.28c-1.088-0.448-2.592-0.864-4.544-1.216s-4-0.672-6.176-0.96c-2.176-0.256-4.288-0.48-6.304-0.608s-3.68-0.256-4.96-0.352v-1.088h83.008zM193.44 515.296c5.12-11.616 12.096-21.728 20.96-30.336 8.96-8.672 18.88-15.328 29.792-19.872s22.56-6.848 34.944-6.848c14.112 0 26.752 2.368 37.92 7.072s21.152 11.456 29.92 20.224c10.144 10.144 17.312 21.28 21.504 33.44s6.304 25.408 6.304 39.68c0 6.528-0.576 12.992-1.76 19.456s-2.848 12.672-5.024 18.656-4.832 11.552-7.936 16.704c-3.136 5.152-6.688 9.728-10.656 13.696-5.44 5.344-10.912 9.888-16.416 13.632s-11.136 6.784-16.896 9.088c-5.76 2.304-11.616 3.968-17.568 5.024s-12.064 1.568-18.336 1.568c-12.384 0-24.352-2.336-35.904-6.976s-21.792-11.52-30.752-20.576c-8.512-8.608-15.264-19.008-20.288-31.2s-7.52-26.368-7.52-42.464c0-15.040 2.56-28.352 7.712-39.968v0zM216.704 596.832c3.264 12.352 7.872 22.784 13.856 31.264s13.152 14.976 21.568 19.392c8.416 4.416 17.792 6.656 28.096 6.656 10.4 0 19.808-2.208 28.224-6.656s15.616-10.784 21.568-19.072c5.984-8.288 10.56-18.4 13.76-30.336s4.832-25.408 4.832-40.448c0-13.76-1.408-26.56-4.224-38.4s-7.040-22.112-12.672-30.816c-5.664-8.672-12.768-15.52-21.376-20.48s-18.624-7.456-30.112-7.456c-11.584 0-21.632 2.496-30.208 7.456s-15.648 11.744-21.312 20.288c-5.664 8.544-9.888 18.528-12.672 29.984s-4.192 23.584-4.192 36.448c0 15.744 1.632 29.792 4.864 42.176v0zM480.256 462.432v1.088c-1.28 0.096-2.88 0.192-4.832 0.352s-3.936 0.288-5.984 0.48c-2.048 0.192-3.968 0.416-5.824 0.736s-3.232 0.64-4.128 1.024c-3.36 1.28-5.632 3.136-6.848 5.568s-1.824 5.184-1.824 8.288v78.72h26.464c5.248 0 9.824-0.8 13.76-2.432s7.296-3.808 10.112-6.528c2.816-2.72 5.152-5.824 7.072-9.376 1.888-3.52 3.328-7.232 4.224-11.104s1.856-7.744 2.752-11.584c0.928-3.84 1.792-7.424 2.624-10.72 1.792-7.712 3.392-14.56 4.832-20.544s3.456-10.976 6.080-14.976 5.792-6.976 9.504-9.024c3.712-2.048 8.128-3.040 13.312-3.040 5.504 0 10.144 0.8 13.92 2.432s6.784 4.064 9.088 7.264c2.304 3.2 3.968 7.264 4.96 12.16s1.504 10.592 1.504 17.088v5.824h-2.048v-5.824c0-5.248-0.48-9.6-1.44-13.088s-2.24-6.304-3.808-8.416c-1.568-2.112-3.328-3.616-5.248-4.48s-3.872-1.28-5.792-1.28c-3.872 0-7.040 1.28-9.504 3.84s-4.512 6.528-6.080 11.904c-1.984 6.88-3.584 13.92-4.8 21.088s-2.848 14.624-4.928 22.336c-1.344 4.896-3.52 9.152-6.528 12.768s-6.656 6.592-10.944 8.992c-4.288 2.4-9.088 4.256-14.368 5.536s-10.784 2.048-16.544 2.336v0.864c6.528 1.088 13.216 2.784 20.16 5.152s13.216 5.504 18.944 9.472c5.696 3.968 10.368 8.736 14.048 14.336s5.504 12.16 5.504 19.744c0 5.088-0.8 9.664-2.432 13.728s-3.84 7.712-6.656 10.944-6.016 5.952-9.632 8.224c-3.616 2.272-7.392 4.16-11.328 5.632-3.936 1.504-7.904 2.592-11.936 3.328s-7.808 1.088-11.328 1.088h-93.632v-1.344c1.184-0.096 2.624-0.256 4.352-0.48s3.488-0.48 5.28-0.8c1.792-0.32 3.552-0.672 5.216-1.024s3.104-0.736 4.288-1.088c3.424-0.992 5.728-2.784 6.848-5.344s1.696-5.408 1.696-8.48v-153.536c0-3.072-0.576-5.824-1.76-8.256s-3.424-4.288-6.784-5.568c-0.896-0.352-2.208-0.704-3.872-1.024s-3.424-0.608-5.28-0.896c-1.856-0.288-3.68-0.48-5.504-0.608s-3.296-0.256-4.48-0.352v-1.088l79.552-0.032zM450.816 649.984h29.984c4.96 0 9.824-0.8 14.528-2.368s8.896-4.16 12.544-7.712c3.648-3.552 6.592-8.16 8.832-13.856s3.328-12.608 3.328-20.8c0-7.744-1.28-14.4-3.872-20s-6.048-10.176-10.368-13.792c-4.352-3.616-9.344-6.272-15.008-7.968s-11.552-2.56-17.696-2.56h-22.24l-0.032 89.056zM73.024 240.352v1.088c-3.072 0.096-6.56 0.512-10.464 1.152s-7.584 1.632-11.072 2.848-6.4 2.752-8.768 4.576c-2.368 1.792-3.52 4-3.52 6.496 0 1.92 0.288 4.192 0.896 6.816s1.376 5.472 2.368 8.672c1.28 4.576 3.2 10.176 5.76 17.056 2.56 6.848 5.504 14.24 8.768 22.24h72.192l20.896-52.64c0.448-0.992 0.736-2.112 0.896-3.328 0.16-1.248 0.192-2.336 0.192-3.328 0-1.728-1.12-3.232-3.328-4.48s-4.896-2.336-8.064-3.232c-3.168-0.832-6.432-1.536-9.824-2.016s-6.304-0.8-8.768-0.896v-1.088h80.608v1.088c-2.624 0.192-5.44 0.672-8.416 1.344s-5.76 1.888-8.288 3.36c-3.36 1.984-5.824 4.128-7.392 6.368-1.568 2.208-2.912 4.704-4 7.52-1.728 4.256-3.936 9.856-6.656 16.768-2.72 6.976-5.792 14.848-9.216 23.68-3.424 8.864-7.2 18.56-11.264 28.992-4.064 10.496-8.352 21.408-12.832 32.832-4.48 11.392-9.088 23.104-13.76 35.072-4.704 12-9.408 23.904-14.112 35.744h-2.432c-5.344-13.216-10.912-26.976-16.768-41.312s-11.68-28.544-17.568-42.944c-5.888-14.304-11.68-28.32-17.376-41.984s-11.008-26.432-15.872-38.304c-2.080-5.184-4.768-9.664-8.064-13.44-3.296-3.744-6.528-6.56-9.696-8.352-2.624-1.536-5.632-2.752-9.024-3.648-3.392-0.928-6.4-1.472-9.024-1.664v-1.088l72.992 0.032zM94.464 403.424l33.664-88.864h-70.016l36.352 88.864zM360.704 240.352l4.352 52.608h-1.088c-0.352-1.312-1.056-3.136-2.112-5.376s-2.304-4.768-3.808-7.52-3.136-5.632-4.96-8.608c-1.824-3.008-3.584-5.856-5.344-8.576s-3.424-5.184-5.024-7.36c-1.6-2.208-2.912-4-4-5.248-1.344-1.44-3.744-2.624-7.136-3.616s-7.296-1.824-11.744-2.368c-4.448-0.576-9.024-0.992-13.792-1.184-4.768-0.256-9.152-0.384-13.248-0.384-7.68 0-13.76 0.224-18.176 0.672s-7.776 1.504-10.048 3.264c-2.272 1.728-3.68 4.288-4.288 7.712-0.608 3.392-0.896 8.096-0.896 13.952v143.104c0 3.072 0.576 5.888 1.76 8.416s3.488 4.352 6.912 5.408c1.28 0.352 2.784 0.736 4.544 1.216 1.76 0.448 3.584 0.832 5.504 1.216 1.888 0.352 3.744 0.672 5.568 0.928 1.824 0.32 3.36 0.48 4.608 0.576v1.056h-79.136v-1.056c1.184-0.096 2.624-0.32 4.352-0.672s3.456-0.768 5.216-1.248c1.76-0.544 3.488-1.056 5.152-1.664s3.136-1.152 4.416-1.696c3.424-1.536 5.728-3.488 6.848-5.856 1.12-2.304 1.696-5.056 1.696-8.128v-151.616c0-3.072-0.576-5.824-1.76-8.32-1.184-2.432-3.424-4.288-6.784-5.568-0.896-0.352-2.208-0.672-3.872-0.992s-3.424-0.64-5.28-0.896-3.68-0.48-5.504-0.672c-1.824-0.16-3.296-0.288-4.48-0.384v-1.088h151.552zM530.464 240.352l4.352 52.608h-1.088c-0.352-1.312-1.056-3.136-2.112-5.376s-2.304-4.768-3.808-7.52c-1.504-2.752-3.136-5.632-4.96-8.608-1.824-3.008-3.584-5.856-5.344-8.576s-3.424-5.184-5.024-7.36c-1.6-2.208-2.912-4-4-5.248-1.344-1.44-3.744-2.624-7.136-3.616s-7.296-1.824-11.744-2.368c-4.448-0.576-9.024-0.992-13.792-1.184-4.768-0.256-9.152-0.384-13.216-0.384-7.68 0-13.76 0.224-18.176 0.672s-7.776 1.504-10.048 3.264c-2.272 1.728-3.68 4.288-4.288 7.712-0.608 3.392-0.896 8.096-0.896 13.952v143.104c0 3.072 0.576 5.888 1.76 8.416s3.488 4.352 6.912 5.408c1.28 0.352 2.784 0.736 4.544 1.216 1.76 0.448 3.584 0.832 5.504 1.216 1.888 0.352 3.744 0.672 5.568 0.928 1.824 0.32 3.36 0.48 4.608 0.576v1.056h-79.104v-1.056c1.184-0.096 2.624-0.32 4.352-0.672s3.456-0.768 5.216-1.248c1.76-0.544 3.488-1.056 5.152-1.664s3.136-1.152 4.416-1.696c3.424-1.536 5.728-3.488 6.848-5.856 1.12-2.304 1.696-5.056 1.696-8.128v-151.616c0-3.072-0.576-5.824-1.76-8.32-1.184-2.432-3.424-4.288-6.784-5.568-0.896-0.352-2.208-0.672-3.872-0.992s-3.424-0.64-5.28-0.896c-1.856-0.288-3.68-0.48-5.504-0.672-1.824-0.16-3.296-0.288-4.48-0.384v-1.088h151.488zM22.784 15.552h0.8l10.592 16.576c3.36-2.304 6.816-4.576 10.464-6.624s7.52-3.936 11.744-5.472c4.192-1.568 8.768-2.816 13.632-3.744 4.864-0.896 10.272-1.408 16.16-1.408 7.232 0 14.208 1.28 20.896 3.872s12.608 6.304 17.792 11.2c5.152 4.832 9.312 10.816 12.416 17.856s4.672 15.008 4.672 23.968c0 7.328-0.928 13.6-2.784 18.752s-4.512 9.664-8 13.536c-3.488 3.84-7.68 7.296-12.608 10.208-4.928 2.944-10.464 5.856-16.64 8.736-3.424 1.632-6.688 3.136-9.696 4.448s-6.048 2.624-9.024 3.936c-2.976 1.312-6.080 2.688-9.28 4.128-3.2 1.504-6.624 3.168-10.24 5.056-4.064 2.144-7.616 4.448-10.656 6.752-3.040 2.336-5.568 4.928-7.584 7.744s-3.584 5.984-4.608 9.376c-1.024 3.456-1.568 7.328-1.568 11.712 0 4 0.8 7.936 2.432 11.84s3.904 7.36 6.848 10.464c2.944 3.072 6.464 5.568 10.592 7.456 4.128 1.952 8.672 2.88 13.632 2.88 7.968 0 15.040-1.504 21.248-4.512 6.208-2.976 11.744-7.168 16.64-12.576s9.184-11.808 12.896-19.2c3.712-7.328 7.008-15.456 9.92-24.288h1.344l-1.344 62.848h-0.8l-10.592-16.832c-2.432 1.984-5.152 3.936-8.128 6.016-2.976 2.048-6.368 3.84-10.176 5.504-3.808 1.632-8.064 2.88-12.768 3.872s-9.984 1.504-15.872 1.504c-6.784 0-13.152-1.184-19.072-3.616-5.92-2.368-11.072-5.76-15.392-10.016-4.352-4.288-7.744-9.44-10.24-15.456s-3.744-12.672-3.744-20c0-6.432 0.704-12.128 2.112-17.056 1.408-4.896 3.456-9.376 6.176-13.216 2.72-3.872 6.048-7.328 10.048-10.272 3.968-2.944 8.544-5.6 13.696-7.968 4.512-2.080 8.352-3.84 11.552-5.248s6.208-2.72 9.088-3.936 5.888-2.464 9.024-3.776c3.136-1.312 6.848-2.944 11.2-4.832 8.512-3.616 15.264-8.608 20.288-14.976s7.52-13.888 7.52-22.56c0-5.568-0.896-10.752-2.656-15.712s-4.352-9.28-7.744-13.056c-3.392-3.776-7.584-6.72-12.544-8.896-4.96-2.304-10.688-3.36-17.088-3.36-7.968 0-15.2 1.472-21.696 4.416-6.496 2.976-12.448 7.104-17.792 12.544-5.344 5.376-10.144 11.872-14.4 19.424-4.256 7.584-8.064 15.936-11.392 25.088h-1.216l2.048-63.104h-0.128zM322.304 18.24l3.648 52.064h-1.344c-0.736-2.080-1.888-5.12-3.456-9.088s-3.36-8.192-5.344-12.608c-1.984-4.448-4.128-8.672-6.368-12.672-2.272-4.032-4.448-7.136-6.528-9.28-1.632-1.728-4.352-3.008-8.224-3.872-3.872-0.832-8.224-1.44-13.088-1.76-4.896-0.352-10.048-0.48-15.456-0.48s-10.592 0-15.456 0c-7.072 0-12.768 0.256-17.088 0.704-4.32 0.48-7.712 1.632-10.112 3.392s-4.032 4.32-4.896 7.616c-0.864 3.328-1.28 7.872-1.28 13.568v69.632h30.272c3.808 0 6.976-0.256 9.504-0.864 2.528-0.64 4.672-1.344 6.368-2.24 1.728-0.864 3.136-1.888 4.224-2.976s2.080-2.080 2.976-3.104c0.8-0.896 1.664-2.496 2.592-4.8s1.728-4.864 2.432-7.68c0.704-2.88 1.344-5.76 1.824-8.672 0.48-2.976 0.832-5.376 1.024-7.328h1.344v76.256h-1.344c-0.192-1.824-0.48-4.064-0.96-6.688-0.48-2.688-1.024-5.312-1.696-8-0.672-2.624-1.44-5.12-2.304-7.392s-1.824-3.936-2.912-4.896c-0.8-0.8-1.728-1.792-2.784-2.88-1.056-1.056-2.432-2.048-4.128-3.040-1.728-0.928-3.872-1.728-6.432-2.368s-5.824-0.896-9.696-0.896h-30.272v87.936h38.4c4.416 0 9.088-0.064 13.984-0.224 4.896-0.128 8.992-0.416 12.352-0.896 1.888-0.256 3.872-1.12 5.888-2.56 2.016-1.504 3.968-3.296 5.824-5.504s3.648-4.672 5.344-7.328c1.696-2.656 3.264-5.376 4.672-8.128s2.592-5.44 3.584-8.064c0.992-2.624 1.728-4.928 2.176-6.912h1.344v41.92h-146.688v-1.088c1.28-0.096 2.88-0.288 4.832-0.544 1.952-0.288 3.968-0.672 6.048-1.088s4.128-0.928 6.112-1.504 3.648-1.088 5.024-1.632c3.424-1.44 5.728-3.328 6.848-5.632s1.696-4.992 1.696-8.064v-152.512c0-3.072-0.608-5.824-1.76-8.128-1.152-2.336-3.424-4.16-6.784-5.44-1.088-0.448-2.592-0.864-4.544-1.216s-4-0.672-6.176-0.96c-2.176-0.256-4.288-0.48-6.304-0.64-2.016-0.192-3.68-0.32-4.96-0.384v-1.12l158.048 0.064zM398.176 18.24v1.12c-3.072 0.064-6.56 0.48-10.432 1.12-3.872 0.672-7.584 1.632-11.072 2.88-3.488 1.184-6.4 2.752-8.768 4.544-2.368 1.856-3.52 4-3.52 6.528 0 1.888 0.288 4.16 0.896 6.784s1.376 5.536 2.368 8.704c1.28 4.544 3.2 10.176 5.76 17.024s5.504 14.272 8.768 22.24h72.192l20.896-52.608c0.448-0.992 0.736-2.112 0.896-3.328s0.192-2.336 0.192-3.328c0-1.728-1.12-3.232-3.328-4.48s-4.896-2.336-8.064-3.232c-3.168-0.832-6.432-1.504-9.824-2.016s-6.304-0.768-8.768-0.896v-1.056h80.608v1.056c-2.624 0.192-5.44 0.672-8.416 1.376-2.976 0.672-5.76 1.856-8.288 3.36-3.36 1.984-5.824 4.096-7.392 6.336-1.568 2.208-2.912 4.704-4 7.52-1.728 4.256-3.936 9.888-6.656 16.8s-5.792 14.816-9.216 23.68c-3.424 8.864-7.2 18.496-11.264 28.992s-8.352 21.376-12.832 32.8c-4.48 11.424-9.088 23.136-13.792 35.072-4.704 12-9.408 23.936-14.112 35.744h-2.432c-5.344-13.184-10.912-26.976-16.768-41.312-5.856-14.304-11.712-28.672-17.568-43.008-5.888-14.304-11.68-28.352-17.376-41.984-5.696-13.696-11.008-26.496-15.872-38.336-2.080-5.152-4.768-9.664-8.064-13.408-3.296-3.776-6.528-6.56-9.696-8.384-2.624-1.504-5.632-2.752-9.024-3.68-3.392-0.896-6.4-1.44-9.024-1.632v-1.056l72.992 0.064zM419.616 181.408l33.664-88.896h-70.016l36.352 88.896zM535.232 15.552h0.8l10.592 16.576c3.36-2.304 6.816-4.576 10.432-6.624s7.52-3.936 11.744-5.472c4.192-1.568 8.768-2.816 13.632-3.744 4.864-0.896 10.272-1.408 16.16-1.408 7.232 0 14.208 1.28 20.896 3.872s12.608 6.304 17.792 11.2c5.152 4.832 9.312 10.816 12.416 17.856 3.136 7.040 4.672 15.008 4.672 23.968 0 7.328-0.928 13.6-2.816 18.752-1.824 5.152-4.512 9.664-8 13.536-3.456 3.84-7.648 7.296-12.608 10.208-4.928 2.944-10.464 5.856-16.608 8.736-3.424 1.632-6.688 3.136-9.696 4.448s-6.048 2.624-9.024 3.936c-2.976 1.312-6.080 2.688-9.28 4.128-3.2 1.504-6.624 3.168-10.24 5.056-4.064 2.144-7.616 4.448-10.656 6.752-3.040 2.336-5.568 4.928-7.584 7.744s-3.584 5.984-4.608 9.376c-1.056 3.456-1.568 7.328-1.568 11.712 0 4 0.8 7.936 2.432 11.84s3.904 7.36 6.848 10.464c2.944 3.072 6.464 5.568 10.592 7.456 4.128 1.952 8.672 2.88 13.632 2.88 7.968 0 15.040-1.504 21.248-4.512 6.208-2.976 11.744-7.168 16.64-12.576s9.184-11.808 12.896-19.2c3.712-7.328 7.008-15.456 9.952-24.288h1.312l-1.312 62.848h-0.8l-10.592-16.864c-2.432 1.984-5.152 3.936-8.128 6.016-2.976 2.048-6.368 3.84-10.176 5.504-3.808 1.632-8.064 2.88-12.768 3.872s-9.984 1.504-15.872 1.504c-6.784 0-13.152-1.184-19.072-3.616-5.92-2.368-11.072-5.76-15.392-10.016-4.352-4.288-7.744-9.44-10.24-15.456s-3.744-12.672-3.744-20c0-6.432 0.704-12.128 2.112-17.056 1.408-4.896 3.456-9.376 6.176-13.216 2.72-3.872 6.048-7.328 10.048-10.272 3.968-2.944 8.544-5.6 13.696-7.968 4.512-2.080 8.384-3.84 11.552-5.248s6.208-2.72 9.088-3.936c2.88-1.216 5.888-2.464 9.024-3.776s6.848-2.944 11.2-4.832c8.512-3.616 15.264-8.608 20.288-14.976s7.52-13.888 7.52-22.56c0-5.568-0.896-10.752-2.656-15.712s-4.352-9.28-7.744-13.056-7.584-6.72-12.544-8.896c-4.96-2.176-10.688-3.264-17.088-3.264-7.968 0-15.2 1.472-21.696 4.416-6.496 2.976-12.448 7.104-17.792 12.544-5.344 5.376-10.144 11.872-14.4 19.424-4.256 7.584-8.064 15.936-11.392 25.088h-1.216l2.048-63.104h-0.128zM683.488 71.136c5.12-11.616 12.064-21.728 20.928-30.304 8.96-8.672 18.88-15.328 29.824-19.872 10.912-4.576 22.56-6.88 34.944-6.88 14.112 0 26.752 2.368 37.952 7.104 11.136 4.704 21.12 11.456 29.92 20.224 10.144 10.112 17.312 21.28 21.504 33.44s6.272 25.408 6.272 39.68c0 6.528-0.576 12.992-1.76 19.424-1.184 6.496-2.848 12.672-4.992 18.688-2.176 5.984-4.832 11.52-7.936 16.672-3.136 5.152-6.688 9.76-10.688 13.696-5.44 5.344-10.88 9.888-16.384 13.632-5.536 3.744-11.2 6.816-16.928 9.12-5.76 2.272-11.584 3.936-17.568 4.992-5.952 1.056-12.064 1.568-18.304 1.568-12.384 0-24.384-2.304-35.904-6.976-11.552-4.672-21.792-11.52-30.784-20.544-8.512-8.64-15.264-19.008-20.256-31.232-5.056-12.192-7.52-26.336-7.52-42.464 0-15.040 2.56-28.352 7.648-39.936l0.032-0.032zM706.752 152.672c3.264 12.384 7.872 22.816 13.888 31.296 5.984 8.48 13.12 14.976 21.568 19.392 8.416 4.416 17.792 6.624 28.064 6.624 10.432 0 19.808-2.176 28.256-6.624 8.416-4.48 15.616-10.816 21.568-19.104 6.016-8.288 10.56-18.4 13.76-30.336 3.232-11.936 4.832-25.376 4.832-40.448 0-13.76-1.408-26.56-4.192-38.368-2.784-11.872-7.040-22.112-12.672-30.848-5.696-8.672-12.768-15.52-21.376-20.48-8.64-4.96-18.624-7.456-30.112-7.456-11.584 0-21.632 2.496-30.208 7.456-8.608 4.928-15.648 11.744-21.312 20.288s-9.92 18.528-12.672 29.984c-2.816 11.456-4.192 23.584-4.192 36.48 0 15.712 1.632 29.792 4.864 42.144h-0.064zM884.64 205.76c2.816-0.736 5.728-1.696 8.608-2.784s5.632-2.272 8.224-3.584 4.736-2.624 6.432-4c5.888-4.768 8.8-12.128 8.8-21.984v-108.416c0-5.888-0.192-11.008-0.672-15.392s-1.12-8.128-1.984-11.264c-0.832-3.168-1.888-5.664-3.136-7.52s-2.656-3.328-4.288-4.192c-0.768-0.448-2.336-1.056-4.544-1.824s-4.64-1.568-7.232-2.304-5.088-1.44-7.52-2.048c-2.432-0.608-4.32-0.928-5.696-0.992v-1.088h77.76v1.088c-1.248 0.064-3.264 0.416-6.016 0.928-2.784 0.576-5.696 1.248-8.832 2.112s-6.048 1.824-8.864 2.848-4.8 2.016-6.016 3.040c-3.072 2.528-5.504 6.88-7.264 12.96s-2.656 14.464-2.656 25.024v116.672l135.904-167.2h1.984v147.488c0 4.384 0.16 8.512 0.416 12.448 0.32 3.936 0.768 7.488 1.504 10.784 0.672 3.296 1.696 6.016 2.976 8.416s2.88 4.128 4.832 5.28c0.8 0.544 2.368 1.184 4.544 1.984 2.144 0.8 4.608 1.536 7.168 2.24 2.56 0.736 5.056 1.376 7.424 1.856s4.224 0.704 5.472 0.704v1.088h-76.544v-1.088c1.728-0.096 3.936-0.416 6.752-0.928 2.752-0.576 5.664-1.184 8.64-1.984 3.008-0.8 5.76-1.632 8.32-2.592s4.576-1.824 5.92-2.656c3.072-1.824 5.408-6.016 7.040-12.64 1.632-6.56 2.432-14.752 2.432-24.576v-109.792l-127.008 156.192h-50.624v-0.768c2.24-0.256 4.768-0.768 7.68-1.568h0.064zM1105.44 15.552h0.8l10.56 16.576c3.36-2.304 6.816-4.576 10.496-6.624 3.616-2.048 7.488-3.936 11.744-5.472 4.192-1.568 8.736-2.816 13.632-3.744 4.832-0.896 10.24-1.408 16.128-1.408 7.264 0 14.24 1.28 20.928 3.872s12.608 6.304 17.76 11.2c5.184 4.832 9.312 10.816 12.448 17.856s4.672 15.008 4.672 23.968c0 7.328-0.928 13.6-2.816 18.752-1.856 5.152-4.512 9.664-8 13.536-3.456 3.84-7.68 7.296-12.608 10.208-4.928 2.944-10.464 5.856-16.672 8.736-3.392 1.632-6.688 3.136-9.696 4.448s-6.048 2.624-8.992 3.936c-3.008 1.312-6.080 2.688-9.312 4.128-3.264 1.504-6.624 3.168-10.24 5.056-4.064 2.144-7.616 4.448-10.688 6.752-3.008 2.336-5.568 4.928-7.552 7.744s-3.552 5.984-4.64 9.376c-0.992 3.456-1.568 7.328-1.568 11.712 0 4 0.8 7.936 2.432 11.84s3.904 7.36 6.88 10.464c2.944 3.072 6.432 5.568 10.56 7.456 4.128 1.952 8.672 2.88 13.632 2.88 8 0 15.072-1.504 21.248-4.512 6.208-2.976 11.744-7.168 16.672-12.576s9.184-11.808 12.896-19.2c3.68-7.328 7.008-15.456 9.92-24.288h1.344l-1.344 62.848h-0.768l-10.624-16.864c-2.432 1.984-5.12 3.936-8.128 6.016-2.976 2.048-6.368 3.84-10.144 5.504-3.808 1.632-8.064 2.88-12.768 3.872-4.672 0.992-9.984 1.504-15.872 1.504-6.784 0-13.12-1.184-19.072-3.616-5.952-2.368-11.072-5.76-15.36-10.016-4.384-4.288-7.744-9.44-10.24-15.456s-3.744-12.672-3.744-20c0-6.432 0.672-12.128 2.112-17.056 1.376-4.896 3.424-9.376 6.144-13.216 2.72-3.904 6.016-7.328 10.016-10.272s8.576-5.6 13.728-7.968c4.544-2.080 8.352-3.84 11.52-5.248 3.232-1.408 6.24-2.72 9.12-3.936s5.888-2.464 8.992-3.776 6.88-2.944 11.2-4.832c8.544-3.616 15.296-8.608 20.32-14.976 4.992-6.368 7.488-13.888 7.488-22.56 0-5.568-0.864-10.752-2.624-15.712-1.792-4.96-4.384-9.28-7.744-13.056-3.392-3.776-7.584-6.72-12.576-8.896-4.928-2.176-10.688-3.264-17.056-3.264-8 0-15.232 1.472-21.728 4.416-6.464 2.976-12.448 7.104-17.792 12.544-5.344 5.376-10.112 11.872-14.4 19.424-4.256 7.584-8.064 15.936-11.392 25.088h-1.184l2.016-63.104h-0.064zM0 960h1236.32v-5.248h-1236.32v5.248zM0-57.536h1236.32v-6.464h-1236.32v6.464z" horiz-adv-x="1236" />
<glyph unicode="&#xe605;" d="M1304.216 178.162c0-22.926-18.588-41.514-41.514-41.514h-702.845l-257.155-200.649v200.649h-261.189c-22.926 0-41.514 18.588-41.514 41.514v740.324c0 22.926 18.588 41.514 41.514 41.514h1221.189c22.926 0 41.514-18.588 41.514-41.514v-740.324z" horiz-adv-x="1304" />
<glyph unicode="&#xe606;" d="M563.368 960h1169.803v-1024h-1169.803v1024zM1782.885 860.587h513.669v-798.656h-513.669v798.656zM0 860.587h513.669v-798.656h-513.669v798.656z" horiz-adv-x="2297" />
<glyph unicode="&#xe607;" d="M511.488-63.072c-280.864-0.032-512.064 228.672-510.56 514.144 1.472 280.704 230.432 509.664 514.272 507.968 280.416-1.664 508.192-229.792 507.872-512-0.32-281.696-229.28-510.112-511.584-510.112zM148.768 473.664c29.024 0 58.048 0 87.104 0 10.656 0 10.656 0 11.168 10.752 0.032 0.608 0.032 1.216 0.032 1.824 0.288 20.736 2.72 41.28 5.44 61.76 5.472 41.088 14.368 81.472 26.976 120.992 1.6 4.96 1.12 6.688-4.64 6.688-51.968-0.096-103.936 0-155.904 0.256-5.504 0.032-8.352-1.952-10.88-6.656-16.192-30.144-29.344-61.504-38.72-94.432-8.672-30.528-14.4-61.568-16.352-93.28-0.48-7.84-0.16-7.904 7.488-7.936 29.44-0.032 58.88 0 88.32 0zM874.56 473.664c29.632 0 59.296 0 88.928 0 7.68 0 7.968 0.128 7.456 7.936-0.608 9.312-1.408 18.624-2.656 27.84-7.712 56.256-25.152 109.344-52.096 159.36-2.752 5.12-5.856 7.2-11.808 7.168-51.552-0.32-103.136-0.288-154.688-0.384-7.104 0-7.104-0.032-5.184-6.592 0.864-2.912 1.76-5.824 2.624-8.736 11.68-38.912 20.16-78.528 24.992-118.912 2.304-19.136 4.352-38.272 4.864-57.568 0.256-10.112 0.544-10.144 10.464-10.144 29.024 0 58.080 0 87.104 0zM874.496 422.336c-29.856 0-59.68-0.096-89.536 0.096-5.024 0.032-7.392-1.312-7.68-6.656-0.832-15.168-1.568-30.4-3.168-45.504-5.184-48.736-14.72-96.576-29.728-143.296-1.632-5.024-0.992-6.688 4.704-6.688 51.968 0.096 103.936 0 155.904-0.256 5.152-0.032 8.032 1.664 10.496 6.176 16.768 30.56 29.92 62.624 39.392 96.096 8.512 30.112 14.176 60.8 16.032 92.096 0.448 7.808 0.16 7.872-7.552 7.872-29.632 0.032-59.264 0-88.928 0zM149.344 422.336c-29.248 0-58.464 0-87.712 0-8.896 0-9.056-0.032-8.704-8.544 0.448-10.752 1.952-21.376 3.488-32.032 7.936-55.2 25.504-107.168 52.288-156.096 2.464-4.512 5.568-5.568 10.24-5.568 51.776 0.192 103.52 0.224 155.296 0.32 7.168 0 7.136 0.032 4.896 7.168-0.864 2.72-1.664 5.44-2.496 8.16-12.512 42.080-21.376 84.896-26.144 128.576-1.856 16.928-3.232 33.888-3.936 50.912-0.256 6.016-2.88 7.264-8.32 7.232-29.632-0.224-59.264-0.096-88.928-0.096zM486.304 320.992c0 30.848 0 61.696 0 92.576 0 8.768-0.032 8.768-8.768 8.768-57.44 0-114.912 0-172.352 0-1.216 0-2.432-0.064-3.648 0-3.264 0.096-4.64-1.024-4.352-4.704 0.96-12.928 1.632-25.888 2.88-38.816 4.992-52.128 16.16-102.88 33.056-152.416 1.6-4.64 3.84-6.304 8.704-6.304 45.664 0.16 91.36 0.192 137.024-0.032 5.92-0.032 7.648 2.016 7.584 7.744-0.224 31.072-0.096 62.112-0.096 93.184zM632.768 422.336c-28.832 0-57.664 0-86.464 0-8.64 0-8.672-0.032-8.672-8.896 0-32.896 0-65.76 0-98.656 0-29.248 0.032-58.464-0.032-87.712 0-4.16 0.544-6.976 5.824-6.976 46.688 0.128 93.376 0.096 140.064 0 3.936 0 5.92 1.568 7.008 5.216 1.504 5.056 3.36 9.984 4.96 15.008 17.92 56.544 28.384 114.432 31.072 173.728 0.448 10.048-0.544 8.192-7.84 8.224-28.608 0.096-57.248 0.032-85.856 0.032zM486.304 574.4c0 31.072 0 62.112 0 93.184 0 8.128-0.096 8.224-8.096 8.256-41.6 0-83.232 0.192-124.832-0.064-22.208-0.128-16.864 4.064-23.808-17.152-18.88-57.76-29.504-117.056-32.256-177.792-0.256-5.92 1.088-7.264 6.624-7.232 58.048 0.16 116.128 0.096 174.176 0.096 8.032 0 8.16 0.128 8.16 8.16 0 30.848 0 61.696 0 92.576zM537.632 574.624c0-30.848 0-61.696 0-92.544 0-8.384 0.032-8.416 8.512-8.416 40.192 0 80.384 0 120.576 0 18.080 0 36.128 0 54.208 0 3.040 0 5.92-0.512 5.728 4.544-0.544 15.2-1.6 30.4-3.296 45.472-5.568 49.504-16.16 97.952-32.224 145.184-1.856 5.472-4.448 7.104-9.984 7.072-45.056-0.192-90.112-0.096-135.168-0.128-8.288 0-8.32-0.032-8.32-8.64 0-30.848 0-61.696 0-92.544zM146.304 728.448c2.752-1.536 4.8-1.024 6.784-1.024 46.496-0.032 92.992 0.096 139.488-0.192 6.24-0.032 9.248 1.888 11.712 7.648 24.192 56.32 55.904 108.064 95.168 155.168 1.024 1.248 2.88 2.272 2.016 4.992-104.288-26.048-188.352-82.464-255.168-166.592zM401.856 0.864c0.096 2.72-1.152 3.616-2.016 4.64-39.712 47.52-71.616 99.872-96.096 156.736-2.112 4.896-4.736 6.496-9.984 6.464-47.104-0.192-94.208-0.096-141.312-0.128-1.76 0-3.616 0.544-6.016-1.088 66.528-84.064 150.72-140.384 255.424-166.624zM878.432 168.608c-4 0-6.24 0-8.448 0-45.888 0-91.776-0.16-137.664 0.16-6.912 0.064-10.304-1.984-13.056-8.448-21.12-49.312-48.256-95.136-81.28-137.472-5.408-6.944-10.88-13.856-16.288-20.768 104.992 24.896 189.216 81.248 256.768 166.496zM621.792 893.792c0.512-0.832 0.96-1.728 1.568-2.464 40.224-47.936 72.384-100.8 97.12-158.24 1.952-4.512 4.48-5.824 9.184-5.792 47.296 0.16 94.624 0.096 141.92 0.128 1.728 0 3.616-0.608 5.888 1.152-66.56 83.936-150.72 140.352-255.68 165.216zM486.304 816.64c0 27.392 0 54.816-0.032 82.208 0 1.952 0.928 4.672-0.928 5.664-2.208 1.184-3.36-1.6-4.736-2.88-51.392-47.968-91.168-104.352-121.408-167.648-3.136-6.528-3.072-6.592 4-6.592 38.56 0 77.152 0.096 115.712-0.128 6.016-0.032 7.552 2.048 7.488 7.744-0.224 27.2-0.096 54.4-0.096 81.6zM486.304 78.688c0 27.392-0.128 54.784 0.096 82.176 0.032 5.568-1.248 7.872-7.392 7.84-38.752-0.256-77.504-0.192-116.256-0.064-5.216 0.032-6.4-0.96-3.968-6.016 30.432-63.648 70.4-120.32 122.112-168.512 1.248-1.152 2.336-3.52 4.352-2.592 1.952 0.896 1.056 3.296 1.056 4.992 0.064 27.392 0.032 54.784 0.032 82.176zM537.632 817.312c0-27.424 0.128-54.848-0.096-82.24-0.064-5.664 1.408-7.808 7.456-7.776 38.592 0.256 77.184 0.128 115.776 0.128 6.784 0 6.976 0.224 4.128 6.208-30.272 63.552-70.176 120.128-121.76 168.192-1.28 1.184-2.368 3.52-4.352 2.688s-1.088-3.264-1.12-4.96c-0.064-27.424-0.032-54.848-0.032-82.24zM537.632 79.328c0-27.392-0.032-54.784 0.032-82.176 0-1.92-1.024-4.608 1.024-5.568 2.176-1.024 3.36 1.696 4.768 2.976 51.36 47.936 91.136 104.288 121.312 167.584 3.040 6.4 3.040 6.464-4.192 6.464-38.336 0-76.704 0-115.040 0-7.872 0-7.904-0.032-7.904-8.288 0-26.976 0-53.984 0-80.96z" />
<glyph unicode="&#xe608;" d="M832 224h-64v64h32v64h-608v-64h32v-64h-64c-17.664 0-32 14.336-32 32v320c0 30.944 128 64 352 64 11.872 0 22.368 0 32 0 222.016 0 352-32.32 352-64v-320c0-17.664-14.304-32-32-32zM752 544c-26.496 0-48-21.504-48-48s21.504-48 48-48 48 21.504 48 48-21.504 48-48 48zM256 832c0 17.696 14.336 32 32 32h416c17.696 0 32-14.304 32-32v-160h-480v160zM736 32c0-17.664-14.304-32-32-32h-416c-17.664 0-32 14.336-32 32v288h480v-288zM672 288h-352v-32h352v32zM672 224h-352v-32h352v32zM672 160h-352v-32h352v32zM672 96h-352v-32h352v32z" />
<glyph unicode="&#xe609;" d="M0 308.326c0 52.637 10.776 108.589 32.397 167.996 21.552 59.337 53.258 118.053 95.119 176.078 41.792 57.956 93.392 113.632 154.802 166.96 61.41 53.258 132.559 100.162 213.518 140.641l8.082-16.164c-51.324-31.085-98.849-67.143-142.644-108.244-43.864-41.239-82.34-86.761-115.359-136.635-33.088-49.943-60.028-102.925-80.958-158.877-20.999-56.022-33.433-113.701-37.44-173.038h125.444c41.792 0 77.919-6.079 108.244-18.236s54.916-28.667 73.843-49.597c18.858-20.93 33.088-44.555 42.482-70.804 9.394-26.318 14.161-53.604 14.161-81.995 0-27.009-5.733-52.982-17.2-77.919-11.467-25.006-26.318-47.249-44.555-66.798s-39.443-35.437-63.758-47.525-48.423-18.167-72.738-18.167c-56.643 0-103.547 8.427-140.641 25.282-37.164 16.855-67.143 41.515-90.077 73.843-23.003 32.397-39.167 71.495-48.561 117.362-9.464 45.867-14.161 97.882-14.161 155.838zM704.242 308.326c0 52.637 10.776 108.589 32.397 167.996 21.552 59.337 53.258 118.053 95.119 176.078 41.792 57.956 93.392 113.632 154.802 166.96 61.41 53.258 132.559 100.162 213.518 140.641l10.085-16.164c-51.324-31.085-99.195-67.143-143.681-108.244-44.555-41.17-83.307-86.692-116.395-136.635s-60.028-102.925-80.958-158.877c-20.861-56.022-33.295-113.701-37.371-173.038h125.444c41.792 0 77.919-6.079 108.244-18.236s55.331-28.667 74.88-49.597c19.549-20.93 33.71-44.555 42.482-70.804 8.773-26.318 13.125-53.604 13.125-81.995 0-27.009-5.733-52.982-17.2-77.919-11.467-25.006-26.318-47.249-44.555-66.798s-39.443-35.437-63.758-47.525-48.561-18.236-72.876-18.236c-55.331 0-101.889 8.427-139.605 25.282-37.785 16.855-68.11 41.515-91.044 73.843-23.003 32.397-39.167 71.495-48.561 117.362-9.325 45.936-14.092 97.951-14.092 155.907z" horiz-adv-x="1210" />
</font>
</defs>
</svg>
